<svg width="77" height="44" viewBox="0 0 77 44" fill="none" xmlns="http://www.w3.org/2000/svg"><path d="M5.187.115c.335 0 .62.119.854.357.234.238.351.527.351.867v2.482c0 .34-.117.629-.351.867-.235.238-.52.357-.854.357h-3.45c-.312 0-.586-.119-.82-.357a1.19 1.19 0 0 1-.352-.867V1.339c0-.34.118-.629.352-.867.234-.238.508-.357.82-.357h3.45zm14.969 0c.312 0 .586.119.82.357.235.238.352.527.352.867v2.482c0 .34-.117.629-.352.867a1.116 1.116 0 0 1-.82.357h-6.731v19.312c0 .317-.117.595-.352.833a1.116 1.116 0 0 1-.82.357H9.674c-.335 0-.62-.119-.854-.357a1.15 1.15 0 0 1-.351-.833V1.34c0-.34.117-.629.351-.867.235-.238.52-.357.854-.357h10.482zM34.22.387c.268.227.402.533.402.918v2.55c0 .295-.084.55-.252.765a1.179 1.179 0 0 1-.686.425c-1.429.295-2.646.986-3.65 2.074-1.362 1.45-2.043 3.338-2.043 5.661 0 2.323.68 4.222 2.043 5.695a6.791 6.791 0 0 0 3.65 2.04c.29.068.519.21.686.425.168.215.252.47.252.765v2.55c0 .363-.134.669-.402.918a1.279 1.279 0 0 1-.77.272h-.201c-2.59-.43-4.811-1.62-6.665-3.57-2.321-2.425-3.482-5.446-3.482-9.061s1.16-6.658 3.482-9.129C28.395 1.781 30.616.602 33.25.149c.357-.068.68.011.97.238zm10.515 3.298c2.322 2.47 3.483 5.514 3.483 9.129 0 3.615-1.161 6.636-3.483 9.061-1.853 1.95-4.074 3.14-6.664 3.57h-.201c-.268 0-.525-.09-.77-.272a1.206 1.206 0 0 1-.402-.918v-2.55c0-.295.084-.55.251-.765.167-.215.396-.357.686-.425a6.791 6.791 0 0 0 3.65-2.04c1.362-1.473 2.043-3.372 2.043-5.695 0-2.323-.68-4.21-2.042-5.661-1.005-1.088-2.222-1.78-3.65-2.074a1.18 1.18 0 0 1-.687-.425 1.21 1.21 0 0 1-.251-.765v-2.55c0-.385.14-.691.418-.918.28-.227.598-.306.955-.238 2.634.453 4.856 1.632 6.664 3.536zm23.374 11.9l5.057 7.854c.246.408.257.816.034 1.224-.09.181-.23.329-.419.442a1.13 1.13 0 0 1-.586.17h-3.047a1.13 1.13 0 0 1-.57-.153 1.037 1.037 0 0 1-.402-.39l-5.09-8.195h-5.96v7.548c0 .317-.118.595-.352.833a1.116 1.116 0 0 1-.82.357h-2.546c-.312 0-.586-.119-.82-.357a1.15 1.15 0 0 1-.352-.833V12.9c0-.317.117-.595.352-.833.234-.238.508-.357.82-.357h10.315c1.964 0 3.27-.567 3.918-1.7.223-.363.335-.884.335-1.564 0-1.065-.347-1.904-1.039-2.516-.714-.657-1.741-.986-3.08-.986H53.409c-.312 0-.586-.119-.82-.357a1.15 1.15 0 0 1-.352-.833V1.305c0-.317.117-.595.352-.833.234-.238.508-.357.82-.357h10.75c2.612 0 4.7.748 6.262 2.244 1.63 1.496 2.445 3.525 2.445 6.086 0 1.655-.358 3.066-1.072 4.233-.714 1.167-1.752 2.057-3.114 2.669l-.57.238z" fill="url(#a)"/><path d="M8.831 32.106a.599.599 0 0 1-.38-.231.67.67 0 0 1-.152-.425v-1.466c0-.193.076-.367.228-.52a.658.658 0 0 1 .551-.136 6.67 6.67 0 0 1 3.8 2.026 7.117 7.117 0 0 1 1.293 1.929c.05.09.072.193.066.309a.69.69 0 0 1-.104.328.716.716 0 0 1-.238.24.591.591 0 0 1-.314.088h-1.615a.64.64 0 0 1-.323-.087.686.686 0 0 1-.247-.242 4.217 4.217 0 0 0-.494-.636 4.15 4.15 0 0 0-2.07-1.177zm-1.938-2.643a.725.725 0 0 1 .228.52v1.467a.67.67 0 0 1-.152.425.599.599 0 0 1-.38.231 4.15 4.15 0 0 0-2.071 1.177c-.786.862-1.178 1.939-1.178 3.231 0 1.293.392 2.37 1.178 3.232.544.591 1.235.984 2.07 1.177a.599.599 0 0 1 .38.231.67.67 0 0 1 .153.424v1.467c0 .206-.082.38-.247.52a.648.648 0 0 1-.418.155h-.114c-1.52-.283-2.787-.965-3.8-2.045-1.318-1.376-1.977-3.096-1.977-5.16 0-2.065.66-3.785 1.977-5.161 1.026-1.093 2.292-1.769 3.8-2.026a.658.658 0 0 1 .55.135zm7.942 6.656c.013.09.02.225.02.405 0 .283-.02.61-.058.984-.19 1.633-.83 3.022-1.919 4.167a6.774 6.774 0 0 1-3.8 2.045h-.114a.725.725 0 0 1-.437-.154.725.725 0 0 1-.228-.521v-1.467a.67.67 0 0 1 .152-.424.599.599 0 0 1 .38-.231c.836-.193 1.527-.586 2.071-1.177a4.18 4.18 0 0 0 .95-1.64H7.824a.64.64 0 0 1-.475-.193.66.66 0 0 1-.19-.482v-1.37a.67.67 0 0 1 .19-.473.624.624 0 0 1 .475-.202h6.347a.674.674 0 0 1 .665.637v.096zm11.116 1.968l2.87 4.456c.139.232.145.463.019.695a.598.598 0 0 1-.238.25.64.64 0 0 1-.332.097h-1.73a.64.64 0 0 1-.323-.087.588.588 0 0 1-.228-.222l-2.888-4.65H19.72v4.284c0 .18-.067.337-.2.472a.633.633 0 0 1-.465.203H17.61a.633.633 0 0 1-.466-.203.653.653 0 0 1-.2-.472v-6.347c0-.18.067-.338.2-.473a.634.634 0 0 1 .466-.203h5.852c1.115 0 1.856-.321 2.223-.964.127-.206.19-.502.19-.888 0-.604-.196-1.08-.589-1.427-.405-.373-.988-.56-1.748-.56H17.61a.633.633 0 0 1-.466-.202.653.653 0 0 1-.2-.473v-1.39c0-.18.067-.337.2-.472a.633.633 0 0 1 .466-.202h6.1c1.481 0 2.666.424 3.552 1.273.925.849 1.388 2 1.388 3.453 0 .94-.203 1.74-.608 2.402-.406.663-.995 1.167-1.768 1.515l-.323.135zm10.68-8.624a.647.647 0 0 1 .227.52v1.448a.669.669 0 0 1-.532.675c-.81.167-1.5.56-2.071 1.177-.773.823-1.16 1.894-1.16 3.212 0 1.318.387 2.396 1.16 3.232.57.604 1.26.99 2.071 1.157a.669.669 0 0 1 .532.675v1.447c0 .206-.076.38-.228.521a.725.725 0 0 1-.437.154h-.114c-1.47-.244-2.73-.92-3.781-2.025-1.318-1.377-1.976-3.09-1.976-5.142 0-2.051.658-3.778 1.976-5.18 1.026-1.08 2.286-1.749 3.781-2.006a.658.658 0 0 1 .551.135zm5.966 1.871c1.317 1.402 1.976 3.129 1.976 5.18 0 2.052-.659 3.765-1.976 5.142-1.052 1.106-2.312 1.781-3.782 2.025h-.114a.726.726 0 0 1-.437-.154.684.684 0 0 1-.228-.52v-1.448a.67.67 0 0 1 .532-.675 3.853 3.853 0 0 0 2.071-1.157c.773-.836 1.16-1.914 1.16-3.232 0-1.318-.387-2.389-1.16-3.212a3.802 3.802 0 0 0-2.07-1.177.67.67 0 0 1-.533-.675v-1.447c0-.219.08-.392.238-.52a.633.633 0 0 1 .541-.136c1.495.257 2.756.926 3.782 2.006zm9.158 9.608a.717.717 0 0 1 .361.26c.09.123.133.26.133.415v1.486c0 .205-.082.379-.247.52a.648.648 0 0 1-.418.155.321.321 0 0 1-.133-.02 5.671 5.671 0 0 1-3.04-1.659c-1.14-1.183-1.71-2.74-1.71-4.668v-7.428c0-.193.066-.357.2-.492a.633.633 0 0 1 .465-.202h1.463c.19 0 .352.067.485.202s.2.3.2.492v7.466c0 1.222.341 2.155 1.025 2.798.355.334.76.56 1.216.675zm6.556-11.633c.19 0 .351.067.484.202s.2.3.2.492v7.428c0 1.929-.57 3.485-1.71 4.668a5.671 5.671 0 0 1-3.04 1.66.321.321 0 0 1-.133.019.648.648 0 0 1-.419-.154.646.646 0 0 1-.246-.54v-1.486a.66.66 0 0 1 .133-.396.717.717 0 0 1 .36-.26 2.972 2.972 0 0 0 1.217-.675c.684-.618 1.026-1.55 1.026-2.798v-7.466c0-.193.066-.357.2-.492a.655.655 0 0 1 .484-.202h1.444zm10.014 0c1.507 0 2.723.44 3.648 1.321.925.881 1.387 2.055 1.387 3.521 0 1.466-.456 2.637-1.368 3.511-.912.875-2.135 1.312-3.667 1.312h-3.63v3.936c0 .18-.066.337-.2.472a.633.633 0 0 1-.465.203h-1.444a.633.633 0 0 1-.465-.203.653.653 0 0 1-.2-.472v-5.98c0-.18.067-.338.2-.474a.633.633 0 0 1 .465-.202h5.625c.848 0 1.456-.187 1.824-.56.367-.334.55-.842.55-1.524 0-.681-.19-1.205-.57-1.572-.38-.367-.981-.55-1.804-.55h-5.625a.633.633 0 0 1-.465-.202.653.653 0 0 1-.2-.473v-1.39c0-.18.067-.337.2-.472a.633.633 0 0 1 .465-.202h5.739z" fill="url(#b)"/><defs><linearGradient id="a" x1=".565" y1=".115" x2="73.36" y2=".115" gradientUnits="userSpaceOnUse"><stop stop-color="#2D388A"/><stop offset="1" stop-color="#00AEEF"/></linearGradient><linearGradient id="b" x1=".565" y1="29.309" x2="73.36" y2="29.309" gradientUnits="userSpaceOnUse"><stop stop-color="#2D388A"/><stop offset="1" stop-color="#00AEEF"/></linearGradient></defs></svg>