<svg width="150" height="92" viewBox="0 0 150 92" fill="none" xmlns="http://www.w3.org/2000/svg"><path d="M44.748 18.8c0-1.787-1.433-3.236-3.201-3.236H16.265c-1.767 0-3.2 1.449-3.2 3.237v55.28c0 1.788 1.433 3.237 3.2 3.237h25.282c1.768 0 3.2-1.448 3.2-3.236V18.8zm-19.61 1.339h7.713c.284 0 .514.464.514.762s-.23.763-.514.763h-7.714c-.281 0-.511-.465-.511-.763s.23-.762.511-.762zm3.847 54.835c-1.62 0-2.935-1.328-2.935-2.967 0-1.638 1.314-2.966 2.935-2.966 1.62 0 2.935 1.328 2.935 2.966 0 1.639-1.315 2.967-2.935 2.967zm15.008-6.805H13.82V23.951h30.174v44.218zM47.402 14.199c1.192 1.204 1.822 2.736 1.86 4.202a5.061 5.061 0 0 0-1.31-4.756 4.934 4.934 0 0 0-4.706-1.323c1.448.037 2.966.672 4.156 1.877zM50.347 11.221c1.585 1.6 2.42 3.636 2.47 5.582.53-2.193-.046-4.605-1.742-6.319a6.55 6.55 0 0 0-6.252-1.758c1.928.05 3.942.895 5.524 2.495zM53.295 8.243c1.976 1.996 3.015 4.535 3.08 6.964.663-2.737-.056-5.745-2.17-7.883a8.18 8.18 0 0 0-7.802-2.193c2.404.063 4.917 1.116 6.892 3.112zM54.53 19.56c.446 0 .824.158 1.136.473.311.315.467.698.467 1.147v3.285c0 .45-.156.832-.467 1.147-.312.315-.69.473-1.136.473h-4.585c-.416 0-.78-.158-1.09-.473a1.57 1.57 0 0 1-.468-1.147V21.18c0-.45.155-.832.467-1.147.312-.315.675-.472 1.09-.472h4.586zm19.9 0c.416 0 .78.158 1.091.473.312.315.468.698.468 1.147v3.285c0 .45-.156.832-.468 1.147-.311.315-.675.473-1.09.473h-8.949V51.64c0 .42-.156.787-.467 1.102-.312.315-.676.472-1.091.472h-3.428c-.445 0-.824-.157-1.135-.472a1.519 1.519 0 0 1-.468-1.102V21.18c0-.45.156-.833.468-1.148.311-.315.69-.472 1.135-.472H74.43zm18.698.36c.357.3.535.706.535 1.215v3.375c0 .39-.111.727-.334 1.012a1.569 1.569 0 0 1-.913.563c-1.9.39-3.517 1.305-4.852 2.744-1.81 1.92-2.716 4.417-2.716 7.492 0 3.074.905 5.586 2.716 7.536a9.039 9.039 0 0 0 4.852 2.7c.386.09.69.277.913.562.223.285.334.622.334 1.012v3.375c0 .48-.178.885-.534 1.215-.327.24-.668.36-1.024.36h-.267c-3.443-.57-6.396-2.145-8.86-4.725-3.087-3.21-4.63-7.206-4.63-11.99 0-4.785 1.543-8.811 4.63-12.081 2.404-2.52 5.357-4.08 8.86-4.68.474-.09.905.016 1.29.316zm13.98 4.365c3.086 3.27 4.63 7.296 4.63 12.08 0 4.785-1.544 8.782-4.63 11.991-2.464 2.58-5.417 4.155-8.86 4.724h-.267c-.356 0-.697-.12-1.024-.36a1.592 1.592 0 0 1-.534-1.214V48.13c0-.39.111-.727.334-1.012.222-.285.527-.472.912-.563a9.036 9.036 0 0 0 4.853-2.7c1.811-1.949 2.716-4.46 2.716-7.535s-.905-5.572-2.716-7.492c-1.335-1.44-2.953-2.354-4.853-2.744a1.569 1.569 0 0 1-.912-.563 1.596 1.596 0 0 1-.334-1.012v-3.375c0-.51.186-.914.556-1.214.371-.3.794-.405 1.27-.315 3.501.6 6.455 2.16 8.859 4.679zm31.074 15.747l6.722 10.394c.327.54.342 1.08.045 1.62-.119.24-.304.435-.557.584-.252.15-.512.225-.779.225h-4.051a1.51 1.51 0 0 1-.757-.202 1.379 1.379 0 0 1-.534-.517l-6.767-10.844h-7.924v9.989c0 .42-.156.787-.468 1.102-.311.315-.675.472-1.09.472h-3.384c-.415 0-.779-.157-1.091-.472a1.52 1.52 0 0 1-.467-1.102V36.478c0-.42.156-.787.467-1.102.312-.315.676-.473 1.091-.473h13.712c2.612 0 4.348-.75 5.209-2.25.297-.48.445-1.17.445-2.069 0-1.41-.46-2.52-1.38-3.33-.95-.87-2.315-1.304-4.096-1.304h-13.89c-.415 0-.779-.158-1.091-.473a1.52 1.52 0 0 1-.467-1.102v-3.24c0-.42.156-.787.467-1.102.312-.315.676-.472 1.091-.472h14.291c3.472 0 6.247.99 8.325 2.97 2.166 1.979 3.25 4.664 3.25 8.053 0 2.19-.475 4.057-1.425 5.602-.95 1.544-2.33 2.722-4.14 3.532l-.757.314zM59.375 61.895a.797.797 0 0 1-.505-.306.884.884 0 0 1-.202-.562v-1.94c0-.256.1-.485.303-.69a.878.878 0 0 1 .733-.178c1.987.34 3.67 1.234 5.052 2.68.707.75 1.28 1.6 1.718 2.553.067.12.096.256.088.409a.908.908 0 0 1-.14.434.949.949 0 0 1-.315.319.789.789 0 0 1-.417.115h-2.147a.855.855 0 0 1-.43-.115.912.912 0 0 1-.328-.32 5.583 5.583 0 0 0-.656-.842 5.523 5.523 0 0 0-2.754-1.557zM56.8 58.397c.202.205.303.434.303.69v1.94a.885.885 0 0 1-.202.562.797.797 0 0 1-.506.306 5.523 5.523 0 0 0-2.753 1.557c-1.044 1.14-1.566 2.566-1.566 4.276s.522 3.136 1.566 4.277c.724.782 1.642 1.302 2.753 1.557.203.034.37.136.506.306.134.17.202.358.202.562v1.94c0 .272-.11.502-.329.69a.864.864 0 0 1-.555.204h-.152c-2.02-.375-3.705-1.277-5.052-2.706-1.752-1.822-2.627-4.098-2.627-6.83 0-2.731.875-5.008 2.627-6.829 1.364-1.446 3.048-2.34 5.052-2.68a.878.878 0 0 1 .733.178zm10.559 8.808c.016.12.025.298.025.536 0 .375-.025.809-.076 1.302-.252 2.162-1.103 4-2.551 5.514-1.381 1.447-3.065 2.35-5.052 2.707h-.152a.967.967 0 0 1-.581-.205c-.202-.204-.303-.434-.303-.689v-1.94c0-.204.067-.392.202-.562a.797.797 0 0 1 .505-.306c1.112-.255 2.03-.775 2.754-1.557a5.527 5.527 0 0 0 1.263-2.17h-5.356a.87.87 0 0 1-.884-.894v-1.813c0-.238.084-.446.253-.625a.832.832 0 0 1 .631-.268h8.438c.235 0 .437.08.606.242a.89.89 0 0 1 .278.6v.128zm14.777 2.604l3.815 5.897c.185.307.193.613.025.92a.792.792 0 0 1-.316.331.855.855 0 0 1-.442.128h-2.299a.856.856 0 0 1-.43-.115.781.781 0 0 1-.302-.293l-3.84-6.153H73.85v5.667a.862.862 0 0 1-.266.626.844.844 0 0 1-.618.268h-1.92a.844.844 0 0 1-.62-.268.862.862 0 0 1-.264-.626v-8.399c0-.238.088-.447.265-.625a.844.844 0 0 1 .619-.268h7.78c1.482 0 2.467-.426 2.956-1.277.168-.272.252-.664.252-1.174 0-.8-.26-1.43-.783-1.89-.539-.493-1.314-.74-2.324-.74h-7.881a.844.844 0 0 1-.62-.268.862.862 0 0 1-.264-.625v-1.838c0-.239.088-.447.265-.626a.844.844 0 0 1 .619-.268h8.108c1.97 0 3.545.562 4.724 1.685 1.23 1.123 1.844 2.647 1.844 4.57 0 1.242-.27 2.302-.808 3.178-.539.877-1.322 1.545-2.35 2.004l-.429.179zm14.197-11.412c.202.17.303.4.303.69V61a.906.906 0 0 1-.19.575.89.89 0 0 1-.517.319 5.061 5.061 0 0 0-2.754 1.557c-1.027 1.09-1.54 2.506-1.54 4.25 0 1.745.513 3.17 1.54 4.277.758.8 1.676 1.31 2.754 1.532a.89.89 0 0 1 .517.319c.127.162.19.353.19.574v1.915a.903.903 0 0 1-.303.69.968.968 0 0 1-.581.204h-.152c-1.953-.324-3.629-1.217-5.027-2.681-1.751-1.821-2.627-4.089-2.627-6.804 0-2.714.876-5 2.627-6.854 1.364-1.43 3.04-2.315 5.027-2.655a.878.878 0 0 1 .733.178zm7.932 2.477c1.751 1.855 2.627 4.14 2.627 6.854 0 2.715-.876 4.983-2.627 6.804-1.398 1.464-3.074 2.357-5.027 2.68h-.152a.967.967 0 0 1-.58-.204.903.903 0 0 1-.304-.689v-1.915c0-.22.063-.412.19-.574a.89.89 0 0 1 .517-.32 5.13 5.13 0 0 0 2.754-1.53c1.027-1.107 1.541-2.533 1.541-4.277 0-1.745-.514-3.162-1.541-4.25a5.062 5.062 0 0 0-2.754-1.558.89.89 0 0 1-.517-.32.906.906 0 0 1-.19-.574v-1.914c0-.29.105-.52.316-.69.21-.17.45-.23.72-.178 1.987.34 3.663 1.225 5.027 2.655zm12.175 12.713a.954.954 0 0 1 .48.345.908.908 0 0 1 .177.549v1.966a.873.873 0 0 1-.328.689.866.866 0 0 1-.556.204.432.432 0 0 1-.177-.025c-1.566-.307-2.913-1.038-4.042-2.196-1.515-1.566-2.273-3.625-2.273-6.178v-9.829a.89.89 0 0 1 .265-.65.844.844 0 0 1 .619-.269h1.945a.87.87 0 0 1 .644.268.891.891 0 0 1 .266.651v9.88c0 1.617.454 2.85 1.364 3.702.471.442 1.01.74 1.616.893zm8.715-15.394c.253 0 .468.09.645.268a.894.894 0 0 1 .265.651v9.829c0 2.553-.758 4.612-2.274 6.178-1.128 1.157-2.475 1.89-4.041 2.196a.432.432 0 0 1-.177.025.864.864 0 0 1-.556-.204c-.219-.17-.328-.408-.328-.715v-1.966c0-.187.059-.361.176-.523a.954.954 0 0 1 .48-.345c.64-.187 1.179-.485 1.617-.893.909-.817 1.364-2.051 1.364-3.702v-9.88c0-.255.089-.472.265-.65a.874.874 0 0 1 .645-.269h1.919zm13.313 0c2.004 0 3.621.583 4.85 1.749 1.229 1.166 1.844 2.719 1.844 4.659s-.606 3.49-1.819 4.646c-1.212 1.158-2.837 1.736-4.875 1.736h-4.825v5.208a.86.86 0 0 1-.265.626.844.844 0 0 1-.619.268h-1.92a.844.844 0 0 1-.619-.268.86.86 0 0 1-.265-.626v-7.914a.86.86 0 0 1 .265-.625.844.844 0 0 1 .619-.268h7.477c1.129 0 1.937-.247 2.425-.74.489-.443.733-1.115.733-2.017 0-.902-.253-1.596-.758-2.081-.505-.485-1.305-.728-2.4-.728h-7.477a.844.844 0 0 1-.619-.268.86.86 0 0 1-.265-.625v-1.838a.86.86 0 0 1 .265-.626.844.844 0 0 1 .619-.268h7.629z" fill="#5A5A5A"/></svg>