<svg width="30" height="30" viewBox="0 0 30 30" fill="none" xmlns="http://www.w3.org/2000/svg"><path d="M20.965 0H17.84c-2.39 0-4.108.567-5.152 1.702-1.043 1.135-1.565 2.807-1.565 5.015v2.106c0 .556-.451 1.007-1.007 1.007h-1.08c-.557 0-1.008.451-1.008 1.008v3.155c0 .556.451 1.007 1.008 1.007h1.08c.556 0 1.007.45 1.007 1.007v12.986c0 .556.45 1.007 1.007 1.007h4.193c.556 0 1.007-.451 1.007-1.007V16.007c0-.556.451-1.007 1.008-1.007h2.117c.557 0 1.055-.449 1.113-1.002l.335-3.166A.887.887 0 0 0 21 9.83h-2.664c-.556 0-1.007-.45-1.007-1.007V7.245c0-.388.018-.688.055-.901.036-.212.118-.421.245-.628.128-.206.334-.349.62-.428.284-.079.664-.118 1.137-.118h1.578c.556 0 1.007-.451 1.007-1.008V1.007c0-.556-.45-1.007-1.007-1.007z" fill="#363636"/></svg>