<svg width="105" height="106" viewBox="0 0 105 106" fill="none" xmlns="http://www.w3.org/2000/svg"><circle cx="52.5" cy="52.894" r="52.5" fill="#168BAA"/><path d="M80.962 53.766h-.068V39.813c0-1.73-1.427-3.138-3.181-3.138h-.57l-1.296-6.723a2.054 2.054 0 0 0-.88-1.325 2.108 2.108 0 0 0-1.573-.322l-4.828.905-1.798-5.035a2.11 2.11 0 0 0-2.676-1.265L24.448 36.681c-1.664.099-2.988 1.465-2.988 3.132v40.592c0 1.73 1.427 3.138 3.181 3.138h53.07c1.755 0 3.182-1.407 3.182-3.138V66.451h.068c1.157 0 2.099-.928 2.099-2.07v-8.545c0-1.141-.942-2.07-2.099-2.07zM64.766 24.8c.006-.003.026-.01.052.002.025.012.032.032.034.038l1.696 4.749-2.022.38c-.551.102-.913.627-.808 1.17.105.543.636.9 1.187.797l8.868-1.663c.007-.001.028-.005.051.01a.062.062 0 0 1 .029.043l1.223 6.349H39.633l20.941-3.927c.55-.103.913-.627.808-1.171a1.015 1.015 0 0 0-1.187-.797l-27.48 5.153L64.766 24.8zm14.098 55.605c0 .626-.517 1.135-1.151 1.135h-53.07c-.635 0-1.151-.509-1.151-1.135V79.27h2.233c.561 0 1.016-.448 1.016-1.001 0-.553-.455-1.002-1.015-1.002h-2.234V42.951h2.233c.561 0 1.016-.449 1.016-1.002 0-.553-.455-1.002-1.015-1.002h-2.234v-1.135c0-.625.516-1.135 1.15-1.135h53.07c.635 0 1.152.51 1.152 1.135v13.954h-6.567c-3.545 0-6.43 2.846-6.43 6.343s2.884 6.342 6.43 6.342h6.567v13.954zm2.166-16.023c0 .036-.03.067-.068.067h-8.665c-2.426 0-4.4-1.947-4.4-4.34s1.974-4.34 4.4-4.34h8.665c.037 0 .068.03.068.067v8.546z" fill="#F0F0F0"/><path d="M32.224 77.267h-2.167c-.56 0-1.015.448-1.015 1.001 0 .553.455 1.002 1.015 1.002h2.167c.56 0 1.015-.448 1.015-1.002 0-.553-.455-1.001-1.015-1.001zM32.224 40.947h-2.167c-.56 0-1.015.449-1.015 1.002 0 .553.455 1.001 1.015 1.001h2.167c.56 0 1.015-.448 1.015-1.001 0-.553-.455-1.002-1.015-1.002zM38.722 77.267h-2.166c-.56 0-1.015.448-1.015 1.001 0 .553.454 1.002 1.015 1.002h2.166c.56 0 1.015-.448 1.015-1.002 0-.553-.454-1.001-1.015-1.001zM38.722 40.947h-2.166c-.56 0-1.015.449-1.015 1.002 0 .553.454 1.001 1.015 1.001h2.166c.56 0 1.015-.448 1.015-1.001 0-.553-.454-1.002-1.015-1.002zM45.221 77.267h-2.166c-.56 0-1.015.448-1.015 1.001 0 .553.454 1.002 1.015 1.002h2.166c.56 0 1.016-.448 1.016-1.002 0-.553-.455-1.001-1.016-1.001zM45.221 40.947h-2.166c-.56 0-1.015.449-1.015 1.002 0 .553.454 1.001 1.015 1.001h2.166c.56 0 1.016-.448 1.016-1.001 0-.553-.455-1.002-1.016-1.002zM51.72 77.267h-2.167c-.56 0-1.015.448-1.015 1.001 0 .553.454 1.002 1.015 1.002h2.166c.56 0 1.015-.448 1.015-1.002 0-.553-.454-1.001-1.015-1.001zM51.72 40.947h-2.167c-.56 0-1.015.449-1.015 1.002 0 .553.454 1.001 1.015 1.001h2.166c.56 0 1.015-.448 1.015-1.001 0-.553-.454-1.002-1.015-1.002zM58.218 77.267h-2.166c-.561 0-1.016.448-1.016 1.001 0 .553.455 1.002 1.016 1.002h2.166c.56 0 1.015-.448 1.015-1.002 0-.553-.455-1.001-1.015-1.001zM58.218 40.947h-2.166c-.561 0-1.016.449-1.016 1.002 0 .553.455 1.001 1.016 1.001h2.166c.56 0 1.015-.448 1.015-1.001 0-.553-.455-1.002-1.015-1.002zM64.716 77.267H62.55c-.56 0-1.015.448-1.015 1.001 0 .553.454 1.002 1.015 1.002h2.166c.561 0 1.016-.448 1.016-1.002 0-.553-.455-1.001-1.016-1.001zM64.716 40.947H62.55c-.56 0-1.015.449-1.015 1.002 0 .553.454 1.001 1.015 1.001h2.166c.561 0 1.016-.448 1.016-1.001 0-.553-.455-1.002-1.016-1.002zM71.214 77.267h-2.166c-.56 0-1.015.448-1.015 1.001 0 .553.454 1.002 1.015 1.002h2.166c.561 0 1.016-.448 1.016-1.002 0-.553-.455-1.001-1.016-1.001zM71.214 40.947h-2.166c-.56 0-1.015.449-1.015 1.002 0 .553.454 1.001 1.015 1.001h2.166c.561 0 1.016-.448 1.016-1.001 0-.553-.455-1.002-1.016-1.002zM75.547 75.13c-.561 0-1.016.449-1.016 1.002v2.136c0 .554.455 1.002 1.016 1.002.56 0 1.015-.448 1.015-1.001v-2.137c0-.553-.455-1.001-1.015-1.001zM75.547 40.947c-.561 0-1.016.449-1.016 1.002v2.136c0 .553.455 1.002 1.016 1.002.56 0 1.015-.449 1.015-1.002V41.95c0-.553-.455-1.002-1.015-1.002zM75.547 47.357c-.561 0-1.016.448-1.016 1.001v2.137c0 .553.455 1.001 1.016 1.001.56 0 1.015-.448 1.015-1.001v-2.137c0-.553-.455-1.001-1.015-1.001zM75.547 68.721c-.561 0-1.016.448-1.016 1.002v2.136c0 .553.455 1.002 1.016 1.002.56 0 1.015-.449 1.015-1.002v-2.136c0-.553-.455-1.002-1.015-1.002zM72.298 58.039c-1.157 0-2.099.928-2.099 2.07 0 1.14.942 2.07 2.099 2.07 1.157 0 2.098-.93 2.098-2.07 0-1.142-.941-2.07-2.098-2.07zM50.568 59.344v-7.808c3.318.263 5.551 1.786 5.551 3.165 0 .553.455 1.001 1.016 1.001.56 0 1.015-.448 1.015-1.001 0-2.712-3.257-4.877-7.581-5.172v-1.17c0-.554-.455-1.002-1.016-1.002-.56 0-1.015.448-1.015 1.001v1.171c-4.325.296-7.582 2.46-7.582 5.172 0 3.632 3.502 5.05 7.582 6.172v7.808c-3.318-.263-5.551-1.785-5.551-3.164 0-.553-.455-1.002-1.016-1.002-.56 0-1.015.448-1.015 1.002 0 2.711 3.257 4.876 7.581 5.171v1.171c0 .553.455 1.002 1.016 1.002.56 0 1.015-.449 1.015-1.002v-1.17c4.325-.296 7.582-2.46 7.582-5.172 0-3.633-3.502-5.05-7.582-6.173zm-2.03-.557c-4.119-1.2-5.551-2.29-5.551-4.086 0-1.38 2.233-2.902 5.55-3.165v7.251zm2.03 9.894v-7.25c4.119 1.2 5.551 2.29 5.551 4.086 0 1.379-2.233 2.901-5.55 3.164z" fill="#F0F0F0"/></svg>