<svg width="105" height="106" viewBox="0 0 105 106" fill="none" xmlns="http://www.w3.org/2000/svg"><path d="M73.794 21.915h-9.611c-.459-1.374-1.744-2.367-3.256-2.367h-3.57c-1.083-1.475-2.8-2.368-4.618-2.368-1.818 0-3.534.893-4.618 2.367h-3.57c-1.511 0-2.797.993-3.256 2.368h-9.611c-2.54 0-4.606 2.091-4.606 4.662V83.4c0 2.57 2.066 4.661 4.606 4.661h42.11c2.54 0 4.606-2.09 4.606-4.66V26.576c0-2.57-2.066-4.662-4.606-4.662zm-30.486 1.113v-.003-.001c.001-.693.558-1.257 1.243-1.257h4.158c.39 0 .752-.21.948-.551.654-1.137 1.806-1.816 3.082-1.816 1.276 0 2.428.679 3.082 1.816.197.341.558.551.948.551h4.158c.684 0 1.24.562 1.243 1.254v3.63H43.308v-3.623zM76.207 83.4c0 1.347-1.082 2.442-2.413 2.442h-42.11c-1.33 0-2.413-1.095-2.413-2.442V26.577c0-1.347 1.083-2.442 2.413-2.442h9.431v3.625c0 .613.49 1.11 1.097 1.11h21.055c.605 0 1.096-.497 1.096-1.11v-3.625h9.431c1.33 0 2.413 1.095 2.413 2.442V83.4z" fill="#F0F0F0"/><path d="M52.751 21.915h-.012c-.605 0-1.09.497-1.09 1.11 0 .613.496 1.11 1.102 1.11.605 0 1.096-.497 1.096-1.11 0-.613-.49-1.11-1.096-1.11zM72.625 26.65h-4.68c-.605 0-1.096.498-1.096 1.11 0 .614.49 1.11 1.096 1.11h3.583v52.237H33.95V28.87h3.583c.605 0 1.096-.497 1.096-1.11 0-.613-.49-1.11-1.096-1.11h-4.68c-.605 0-1.096.497-1.096 1.11v54.456c0 .613.49 1.11 1.096 1.11h39.772c.605 0 1.096-.497 1.096-1.11V27.76c0-.613-.49-1.11-1.096-1.11z" fill="#F0F0F0"/><path d="M45.72 40.856c-.605 0-1.096.497-1.096 1.11 0 1.347-1.082 2.442-2.413 2.442-1.33 0-2.412-1.095-2.412-2.442 0-1.346 1.082-2.441 2.412-2.441.606 0 1.097-.497 1.097-1.11 0-.613-.491-1.11-1.097-1.11-2.54 0-4.605 2.091-4.605 4.661 0 2.57 2.066 4.661 4.605 4.661 2.54 0 4.606-2.09 4.606-4.66 0-.614-.49-1.11-1.096-1.11zM45.72 53.879c-.605 0-1.096.496-1.096 1.11 0 1.346-1.082 2.441-2.413 2.441-1.33 0-2.412-1.095-2.412-2.442 0-1.346 1.082-2.441 2.412-2.441.606 0 1.097-.497 1.097-1.11 0-.613-.491-1.11-1.097-1.11-2.54 0-4.605 2.091-4.605 4.661 0 2.57 2.066 4.662 4.605 4.662 2.54 0 4.606-2.092 4.606-4.662 0-.613-.49-1.11-1.096-1.11zM66.776 56.246H50.4c-.606 0-1.097.497-1.097 1.11 0 .613.491 1.11 1.097 1.11h16.376c.606 0 1.097-.497 1.097-1.11 0-.613-.491-1.11-1.097-1.11zM62.097 51.51H50.4c-.606 0-1.097.498-1.097 1.11 0 .614.491 1.11 1.097 1.11h11.697c.606 0 1.097-.496 1.097-1.11 0-.612-.491-1.11-1.097-1.11zM66.776 43.224H50.4c-.606 0-1.097.497-1.097 1.11 0 .613.491 1.11 1.097 1.11h16.376c.606 0 1.097-.497 1.097-1.11 0-.613-.491-1.11-1.097-1.11zM62.097 38.49H50.4c-.606 0-1.097.496-1.097 1.109s.491 1.11 1.097 1.11h11.697c.606 0 1.097-.497 1.097-1.11 0-.613-.491-1.11-1.097-1.11zM45.72 66.9c-.605 0-1.096.497-1.096 1.11 0 1.347-1.082 2.442-2.413 2.442-1.33 0-2.412-1.095-2.412-2.442 0-1.346 1.082-2.441 2.412-2.441.606 0 1.097-.497 1.097-1.11 0-.613-.491-1.11-1.097-1.11-2.54 0-4.605 2.091-4.605 4.661 0 2.57 2.066 4.662 4.605 4.662 2.54 0 4.606-2.091 4.606-4.662 0-.612-.49-1.11-1.096-1.11zM66.776 69.268H50.4c-.606 0-1.097.497-1.097 1.11 0 .613.491 1.11 1.097 1.11h16.376c.606 0 1.097-.497 1.097-1.11 0-.613-.491-1.11-1.097-1.11zM62.097 64.533H50.4c-.606 0-1.097.497-1.097 1.11 0 .613.491 1.11 1.097 1.11h11.697c.606 0 1.097-.497 1.097-1.11 0-.613-.491-1.11-1.097-1.11z" fill="#F0F0F0"/></svg>