<svg width="105" height="106" viewBox="0 0 105 106" fill="none" xmlns="http://www.w3.org/2000/svg"><path d="M67.915 82.307H35.23a1.16 1.16 0 0 0-1.167 1.153v2.307a1.16 1.16 0 0 0 1.167 1.153 1.16 1.16 0 0 0 1.168-1.153v-1.153h31.517a1.16 1.16 0 0 0 1.167-1.154 1.16 1.16 0 0 0-1.167-1.153zM43.4 46.557a1.16 1.16 0 0 0 1.168 1.153h4.67a1.16 1.16 0 0 0 1.167-1.153v-6.92a1.16 1.16 0 0 0-1.168-1.152h-4.669a1.16 1.16 0 0 0-1.167 1.153v6.92zm2.336-5.766h2.334v4.613h-2.334v-4.613zM32.895 31.565H18.889a1.16 1.16 0 0 0-1.167 1.153v23.065a1.16 1.16 0 0 0 1.167 1.153 1.16 1.16 0 0 0 1.167-1.153V33.87h12.84a1.16 1.16 0 0 0 1.168-1.153 1.16 1.16 0 0 0-1.168-1.153zM73.751 74.235a1.16 1.16 0 0 0 1.167 1.153h4.67a1.16 1.16 0 0 0 1.167-1.153v-6.92a1.16 1.16 0 0 0-1.168-1.153h-4.669a1.16 1.16 0 0 0-1.167 1.153v6.92zm2.335-5.766h2.334v4.612h-2.334V68.47zM23.557 59.243c-5.77 0-5.836 14.842-5.836 14.992 0 2.785 2.009 5.113 4.669 5.65v5.882a1.16 1.16 0 0 0 1.167 1.153 1.16 1.16 0 0 0 1.167-1.153v-5.882c2.66-.537 4.67-2.865 4.67-5.65 0-.15-.067-14.992-5.837-14.992zm0 18.452c-1.93 0-3.502-1.553-3.502-3.46 0-5.746 1.562-12.686 3.502-12.686 1.94 0 3.502 6.94 3.502 12.686 0 1.907-1.571 3.46-3.502 3.46zM30.56 52.323h-4.669a1.16 1.16 0 0 0-1.167 1.154v2.306a1.16 1.16 0 0 0 1.167 1.153 1.16 1.16 0 0 0 1.168-1.153V54.63h2.334v5.766a1.16 1.16 0 0 0 1.168 1.153 1.16 1.16 0 0 0 1.167-1.153v-6.92a1.16 1.16 0 0 0-1.167-1.153zM74.918 47.71h4.67a1.16 1.16 0 0 0 1.167-1.153v-6.92a1.16 1.16 0 0 0-1.168-1.152h-4.669a1.16 1.16 0 0 0-1.167 1.153v6.92a1.16 1.16 0 0 0 1.167 1.152zm1.168-6.919h2.334v4.613h-2.334V40.79z" fill="#F0F0F0"/><path d="M30.56 38.485h-4.669a1.16 1.16 0 0 0-1.167 1.153v6.92a1.16 1.16 0 0 0 1.167 1.152h4.67a1.16 1.16 0 0 0 1.167-1.153v-6.92a1.16 1.16 0 0 0-1.167-1.152zm-1.167 6.919H27.06v-4.613h2.334v4.613zM55.074 46.557a1.16 1.16 0 0 0 1.168 1.153h4.669a1.16 1.16 0 0 0 1.167-1.153v-6.92a1.16 1.16 0 0 0-1.167-1.152h-4.67a1.16 1.16 0 0 0-1.167 1.153v6.92zm2.335-5.766h2.334v4.613H57.41v-4.613zM86.591 31.565H72.584a1.16 1.16 0 0 0-1.168 1.153 1.16 1.16 0 0 0 1.168 1.153h12.84v46.342a3.494 3.494 0 0 0-1.167-.212c-.202 0-.403.017-.6.052a4.645 4.645 0 0 0-4.07-2.359 4.645 4.645 0 0 0-4.069 2.359 3.474 3.474 0 0 0-.6-.052c-1.93 0-3.501 1.552-3.501 3.46 0 1.907 1.57 3.46 3.501 3.46h9.339c1.93 0 3.502-1.553 3.502-3.46V32.717a1.16 1.16 0 0 0-1.168-1.153zm-2.334 53.049h-9.339a1.162 1.162 0 0 1-1.167-1.154 1.162 1.162 0 0 1 1.8-.965c.32.203.719.24 1.072.1.352-.141.612-.443.698-.809a2.314 2.314 0 0 1 2.267-1.785c1.087 0 2.02.734 2.267 1.785.085.366.345.668.697.808.352.141.752.104 1.072-.099.76-.484 1.8.109 1.8.965 0 .636-.524 1.154-1.167 1.154zM56.242 33.872h4.669a1.16 1.16 0 0 0 1.167-1.154V25.8a1.16 1.16 0 0 0-1.167-1.153h-4.67a1.16 1.16 0 0 0-1.167 1.153v6.92a1.16 1.16 0 0 0 1.168 1.153zm1.167-6.92h2.334v4.613H57.41v-4.613zM55.074 60.396a1.16 1.16 0 0 0 1.168 1.153h4.669a1.16 1.16 0 0 0 1.167-1.153v-6.92a1.16 1.16 0 0 0-1.167-1.153h-4.67a1.16 1.16 0 0 0-1.167 1.154v6.919zm2.335-5.766h2.334v4.613H57.41V54.63zM44.569 33.872h4.669a1.16 1.16 0 0 0 1.167-1.154V25.8a1.16 1.16 0 0 0-1.167-1.153h-4.67a1.16 1.16 0 0 0-1.167 1.153v6.92a1.16 1.16 0 0 0 1.168 1.153zm1.167-6.92h2.335v4.613h-2.335v-4.613zM51.91 73.416c-.21.22-.338.519-.338.819 0 .3.129.6.339.819.222.207.525.334.829.334.303 0 .607-.127.828-.334.21-.22.339-.52.339-.82 0-.299-.128-.599-.338-.818-.444-.427-1.215-.427-1.658 0zM43.4 60.396a1.16 1.16 0 0 0 1.168 1.153h4.67a1.16 1.16 0 0 0 1.167-1.153v-6.92a1.16 1.16 0 0 0-1.168-1.153h-4.669a1.16 1.16 0 0 0-1.167 1.154v6.919zm2.336-5.766h2.334v4.613h-2.334V54.63z" fill="#F0F0F0"/><path d="M41.066 67.315a1.16 1.16 0 0 0 1.168 1.153h3.502v10.38A1.16 1.16 0 0 0 46.903 80a1.16 1.16 0 0 0 1.167-1.154V68.468h9.338v10.38A1.16 1.16 0 0 0 58.576 80a1.16 1.16 0 0 0 1.167-1.154V68.468h3.502a1.16 1.16 0 0 0 1.167-1.153 1.16 1.16 0 0 0-1.167-1.153H42.234a1.16 1.16 0 0 0-1.168 1.153zM73.751 60.396a1.16 1.16 0 0 0 1.167 1.153h4.67a1.16 1.16 0 0 0 1.167-1.153v-6.92a1.16 1.16 0 0 0-1.168-1.153h-4.669a1.16 1.16 0 0 0-1.167 1.154v6.919zm2.335-5.766h2.334v4.613h-2.334V54.63z" fill="#F0F0F0"/><path d="M67.914 17.726h-30.35a1.16 1.16 0 0 0-1.166 1.154v59.968A1.16 1.16 0 0 0 37.565 80a1.16 1.16 0 0 0 1.167-1.153V20.033h28.015v58.815A1.16 1.16 0 0 0 67.914 80a1.16 1.16 0 0 0 1.168-1.153V18.88a1.16 1.16 0 0 0-1.168-1.154z" fill="#F0F0F0"/></svg>