<svg width="105" height="106" viewBox="0 0 105 106" fill="none" xmlns="http://www.w3.org/2000/svg"><circle cx="52.5" cy="52.894" r="52.5" fill="#168BAA"/><path d="M81.592 49.672L79.8 42.417c.49-.105.858-.545.858-1.072v-1.17c0-2.54-2.041-4.605-4.55-4.605h-8.162v-2.413c0-1.25-1.004-2.267-2.24-2.267H24.105c-1.235 0-2.24 1.017-2.24 2.267v19.885a1.09 1.09 0 0 0 1.084 1.097 1.09 1.09 0 0 0 1.084-1.097V33.157c0-.04.032-.073.072-.073h41.603c.04 0 .072.032.072.073v19.886a1.09 1.09 0 0 0 1.083 1.096 1.09 1.09 0 0 0 1.084-1.096v-1.244h12.786c1.573.002 2.908 1.046 3.367 2.486h-3.37a1.09 1.09 0 0 0-1.082 1.097v2.34c0 1.894 1.522 3.435 3.394 3.435h1.228v4.826h-2.833c-.93-2.72-3.485-4.68-6.484-4.68-3 0-5.554 1.96-6.485 4.68h-.522V57.72a1.09 1.09 0 0 0-1.083-1.096 1.09 1.09 0 0 0-1.083 1.096v8.261H43.3c-.93-2.72-3.485-4.679-6.484-4.679-3 0-5.554 1.96-6.485 4.68h-6.227a.073.073 0 0 1-.072-.074v-2.413h4.694A1.09 1.09 0 0 0 29.81 62.4a1.09 1.09 0 0 0-1.084-1.097h-10.4a1.09 1.09 0 0 0-1.084 1.097 1.09 1.09 0 0 0 1.084 1.096h3.539v2.413c0 1.25 1.004 2.266 2.239 2.266h5.852l-.002.074c0 3.83 3.078 6.945 6.862 6.945 3.783 0 6.861-3.116 6.861-6.945l-.002-.073h24.417l-.002.073c0 3.83 3.078 6.945 6.862 6.945 3.783 0 6.861-3.116 6.861-6.945l-.002-.073h3.541a1.09 1.09 0 0 0 1.084-1.097V55.382c0-2.888-2.105-5.288-4.844-5.71zm-13.646-11.91h8.162c1.314 0 2.383 1.083 2.383 2.413v.073H67.946v-2.485zm0 11.844v-7.164h9.627l1.77 7.164H67.945zm-31.13 23.395c-2.589 0-4.695-2.132-4.695-4.752 0-2.62 2.106-4.752 4.695-4.752 2.588 0 4.695 2.131 4.695 4.752 0 2.62-2.107 4.752-4.695 4.752zm38.136 0c-2.589 0-4.695-2.132-4.695-4.752 0-2.62 2.106-4.752 4.695-4.752 2.589 0 4.695 2.131 4.695 4.752 0 2.62-2.106 4.752-4.695 4.752zm9.317-14.037h-1.228a1.237 1.237 0 0 1-1.227-1.243v-1.243h2.455v2.486z" fill="#F0F0F0"/><path d="M36.816 65.983c-1.235 0-2.239 1.016-2.239 2.266s1.005 2.266 2.24 2.266c1.234 0 2.238-1.016 2.238-2.266s-1.004-2.266-2.239-2.266zM74.952 65.983c-1.235 0-2.24 1.016-2.24 2.266s1.005 2.266 2.24 2.266c1.235 0 2.239-1.016 2.239-2.266s-1.004-2.266-2.239-2.266zM62.24 61.304H46.06a1.09 1.09 0 0 0-1.083 1.096 1.09 1.09 0 0 0 1.084 1.097h16.178a1.09 1.09 0 0 0 1.084-1.097 1.09 1.09 0 0 0-1.084-1.096zM34.504 56.625H20.637a1.09 1.09 0 0 0-1.084 1.096 1.09 1.09 0 0 0 1.084 1.097h13.867a1.09 1.09 0 0 0 1.084-1.097 1.09 1.09 0 0 0-1.084-1.096zM54.917 41.74a1.074 1.074 0 0 0-1.532 0L43.75 51.49l-5.012-5.073a1.074 1.074 0 0 0-1.532 0 1.106 1.106 0 0 0 0 1.551l5.778 5.849a1.073 1.073 0 0 0 1.532 0l10.4-10.528a1.106 1.106 0 0 0 0-1.55z" fill="#F0F0F0"/></svg>