<svg width="15" height="12" viewBox="0 0 15 12" fill="#959595" xmlns="http://www.w3.org/2000/svg"><path d="M1.44 3.633c.19.134.761.531 1.716 1.193.954.66 1.685 1.17 2.193 1.527l.355.255c.182.132.332.238.452.319.12.08.265.171.436.272.17.1.33.175.481.225.15.05.29.076.419.076h.016c.129 0 .268-.025.419-.076.15-.05.311-.125.481-.225.17-.101.316-.192.436-.272.12-.081.27-.187.452-.319l.355-.255 3.918-2.72a3.976 3.976 0 0 0 1.02-1.03A2.21 2.21 0 0 0 15 1.34c0-.368-.132-.683-.397-.946A1.294 1.294 0 0 0 13.661 0H1.339C.91 0 .58.145.347.435.116.725 0 1.088 0 1.523c0 .352.154.733.46 1.143.307.41.634.732.98.967z"/><path d="M14.163 4.528a173.964 173.964 0 0 0-4.169 2.888 19.75 19.75 0 0 1-.774.548 4.778 4.778 0 0 1-.79.402c-.33.137-.637.205-.921.205h-.017a2.41 2.41 0 0 1-.921-.205 4.78 4.78 0 0 1-.791-.402 19.815 19.815 0 0 1-.774-.548C4.252 6.863 2.866 5.9.846 4.528A4.433 4.433 0 0 1 0 3.8v6.646c0 .368.131.684.393.946.263.262.578.393.946.393h12.322c.368 0 .683-.13.946-.393a1.29 1.29 0 0 0 .393-.946V3.8c-.24.268-.519.51-.837.728z"/></svg>