<svg width="10" height="8" viewBox="0 0 10 8" fill="#959595" xmlns="http://www.w3.org/2000/svg"><path d="M.96 2.422c.126.09.508.354 1.144.795.636.44 1.123.78 1.462 1.018l.237.17a5.784 5.784 0 0 0 .592.393c.113.068.22.118.32.152.1.033.194.05.28.05h.011a.885.885 0 0 0 .279-.05c.1-.034.207-.084.32-.151a5.89 5.89 0 0 0 .592-.393c.12-.088.2-.145.237-.17.342-.239 1.213-.843 2.612-1.814.271-.19.498-.419.68-.687.183-.267.274-.548.274-.842a.855.855 0 0 0-.265-.63A.862.862 0 0 0 9.107 0H.893C.606 0 .386.097.232.29.077.484 0 .725 0 1.016c0 .234.102.488.307.761.204.274.422.489.653.645z"/><path d="M9.442 3.019c-1.22.825-2.147 1.467-2.779 1.925-.212.156-.384.278-.516.365a3.185 3.185 0 0 1-.528.268c-.219.091-.424.137-.613.137h-.012c-.19 0-.394-.046-.613-.137a3.187 3.187 0 0 1-.528-.268c-.132-.087-.304-.209-.516-.365-.502-.368-1.427-1.01-2.773-1.925A2.956 2.956 0 0 1 0 2.533v4.43a.86.86 0 0 0 .262.631.86.86 0 0 0 .63.263h8.215a.86.86 0 0 0 .63-.263.86.86 0 0 0 .263-.63v-4.43c-.16.178-.346.34-.558.485z"/></svg>