<svg width="15" height="15" viewBox="0 0 15 15" fill="#959595" xmlns="http://www.w3.org/2000/svg"><path d="M14.968 11.623c-.042-.128-.312-.316-.81-.565a24.75 24.75 0 0 0-.575-.32c-.248-.134-.474-.259-.676-.372a22.598 22.598 0 0 1-.57-.33 13.935 13.935 0 0 0-.266-.187 3 3 0 0 0-.379-.23.698.698 0 0 0-.303-.073c-.143 0-.32.1-.533.303a5.185 5.185 0 0 0-.586.66 6.432 6.432 0 0 1-.564.661c-.2.203-.363.304-.49.304a.723.723 0 0 1-.24-.053 2.494 2.494 0 0 1-.219-.09 3.968 3.968 0 0 1-.255-.15 6.52 6.52 0 0 0-.203-.123c-.973-.54-1.807-1.157-2.503-1.853C5.1 8.508 4.482 7.674 3.942 6.7a6.174 6.174 0 0 0-.123-.202 3.847 3.847 0 0 1-.149-.256 2.31 2.31 0 0 1-.09-.219.72.72 0 0 1-.054-.24c0-.127.102-.29.304-.49.202-.198.423-.387.66-.564.239-.177.459-.373.661-.586.202-.213.304-.39.304-.532 0-.1-.025-.201-.075-.304a2.961 2.961 0 0 0-.229-.378c-.103-.15-.165-.238-.186-.267a23.368 23.368 0 0 1-.33-.57 53.742 53.742 0 0 1-.374-.676c-.135-.249-.241-.44-.32-.575-.248-.497-.436-.767-.564-.81A.597.597 0 0 0 3.154 0a3.51 3.51 0 0 0-.752.107c-.309.07-.552.145-.73.223-.354.15-.73.583-1.129 1.3C.181 2.297 0 2.958 0 3.61c0 .192.012.378.037.56.025.18.07.385.134.612.063.228.115.396.154.506.039.11.112.307.218.592.107.284.17.458.192.522a9.65 9.65 0 0 0 .884 1.864c.561.91 1.326 1.849 2.296 2.818.97.97 1.909 1.735 2.818 2.296.547.341 1.168.636 1.864.884.064.022.238.085.522.192.284.107.482.18.592.219.11.039.278.09.505.154.228.064.432.109.613.134.181.024.368.037.56.037.653 0 1.314-.181 1.981-.543.717-.398 1.15-.775 1.3-1.13.078-.177.152-.42.223-.73.072-.309.107-.559.107-.75 0-.1-.01-.175-.032-.225z"/></svg>