<svg width="10" height="10" viewBox="0 0 10 10" fill="#959595" xmlns="http://www.w3.org/2000/svg"><path d="M9.979 7.749c-.029-.086-.209-.211-.54-.377-.09-.052-.218-.123-.383-.213-.166-.09-.317-.173-.451-.248a15.08 15.08 0 0 1-.38-.22 9.415 9.415 0 0 0-.178-.125c-.1-.069-.183-.12-.252-.153a.465.465 0 0 0-.203-.05c-.094 0-.213.068-.355.203a3.46 3.46 0 0 0-.39.44 4.283 4.283 0 0 1-.376.44c-.133.136-.242.203-.327.203a.483.483 0 0 1-.16-.035 1.654 1.654 0 0 1-.146-.06 2.658 2.658 0 0 1-.17-.1 4.383 4.383 0 0 0-.135-.082 7.464 7.464 0 0 1-1.67-1.236 7.46 7.46 0 0 1-1.235-1.669 4.127 4.127 0 0 0-.082-.135 2.563 2.563 0 0 1-.1-.17 1.542 1.542 0 0 1-.06-.146.48.48 0 0 1-.035-.16c0-.085.067-.194.202-.326.135-.133.282-.258.44-.377.16-.118.306-.248.441-.39.135-.142.202-.26.202-.355a.464.464 0 0 0-.05-.203 1.973 1.973 0 0 0-.152-.252l-.124-.177c-.071-.119-.145-.245-.22-.38a35.89 35.89 0 0 1-.25-.451C2.752.779 2.68.65 2.629.56 2.462.23 2.337.05 2.252.021A.398.398 0 0 0 2.102 0a2.34 2.34 0 0 0-.5.071 2.813 2.813 0 0 0-.487.15C.878.32.627.607.362 1.086.121 1.532 0 1.972 0 2.407a2.743 2.743 0 0 0 .114.782c.042.151.077.264.103.337.026.074.074.205.145.394.071.19.114.306.128.348.166.464.362.879.59 1.243.373.606.884 1.233 1.53 1.88.646.645 1.272 1.156 1.879 1.53.364.227.779.423 1.243.59.042.013.158.056.348.127.189.071.32.12.394.146.073.026.186.06.337.103.152.043.288.072.408.089.121.016.246.025.373.025.436 0 .876-.121 1.321-.363.479-.265.767-.516.867-.753.052-.118.102-.28.149-.486.047-.206.071-.373.071-.5a.397.397 0 0 0-.021-.15z"/></svg>