<svg width="30" height="30" viewBox="0 0 30 30" fill="none" xmlns="http://www.w3.org/2000/svg"><g clip-path="url(#a)"><path d="M29.116 5.887c-.148.044-.295.084-.443.121-.904.229-.987-.073-.333-.737.293-.298.552-.622.777-.972.504-.784.067-1.126-.79-.76-.307.13-.618.25-.933.355-.884.297-2.138-.15-2.926-.65-.994-.63-2.124-.946-3.39-.946-1.773 0-3.284.626-4.535 1.875-1.25 1.25-1.875 2.763-1.875 4.536 0 .242.013.488.04.738.046.406-.639.7-1.562.57a17.74 17.74 0 0 1-5.693-1.815A18.256 18.256 0 0 1 2.732 4.73c-.652-.667-1.535-.61-1.778.291-.146.54-.218 1.101-.218 1.684 0 1.098.257 2.117.774 3.056.256.468.557.89.902 1.27.58.637.492 1.007-.317.78-.807-.227-1.4-.563-1.4-.541v.04c0 1.548.487 2.907 1.46 4.078a6.38 6.38 0 0 0 2.087 1.671c.836.414 1.225.645.758.706a6.622 6.622 0 0 1-1.458.028c-.335-.029-.395.668.112 1.45.403.623.919 1.17 1.547 1.643a6.273 6.273 0 0 0 2.064 1.037c.897.256 1.077.721.278 1.2-1.98 1.188-4.17 1.782-6.57 1.782-.27 0-.528-.006-.775-.018-.428-.02-.14.356.685.789 2.581 1.352 5.376 2.027 8.386 2.027 2.275 0 4.412-.36 6.41-1.081 1.998-.721 3.705-1.688 5.12-2.898a19.39 19.39 0 0 0 3.662-4.178 18.63 18.63 0 0 0 2.293-4.932 18.222 18.222 0 0 0 .75-5.567c-.005-.23.605-.853 1.285-1.491.307-.288.6-.59.88-.908.616-.7.343-1.02-.553-.76z" fill="#363636"/></g><defs><clipPath id="a"><path fill="#fff" d="M0 0h30v30H0z"/></clipPath></defs></svg>