<svg width="150" height="92" viewBox="0 0 150 92" fill="none" xmlns="http://www.w3.org/2000/svg">
<path d="M44.7478 18.8008C44.7478 17.013 43.3153 15.5645 41.547 15.5645H16.2652C14.4977 15.5645 13.0645 17.013 13.0645 18.8008V74.0817C13.0645 75.8695 14.4977 77.3181 16.2652 77.3181H41.547C43.3153 77.3181 44.7478 75.8695 44.7478 74.0817V18.8008ZM25.1373 20.1388H32.8515C33.1351 20.1388 33.3652 20.6031 33.3652 20.9012C33.3652 21.1993 33.1351 21.6636 32.8515 21.6636H25.1373C24.8559 21.6636 24.6259 21.1993 24.6259 20.9012C24.6259 20.6031 24.8559 20.1388 25.1373 20.1388ZM28.9846 74.9737C27.3642 74.9737 26.0501 73.6457 26.0501 72.0073C26.0501 70.3689 27.3642 69.0408 28.9846 69.0408C30.6057 69.0408 31.9198 70.3689 31.9198 72.0073C31.9198 73.6457 30.605 74.9737 28.9846 74.9737ZM43.9934 68.1694H13.8188V23.9507H43.9934V68.1694Z" fill="#5A5A5A"/>
<path d="M47.4019 14.1989C48.5945 15.4034 49.2237 16.9351 49.2614 18.4012C49.6605 16.7498 49.2274 14.9346 47.9518 13.6454C46.6754 12.3554 44.8793 11.9178 43.2461 12.3219C44.6945 12.3592 46.2123 12.9943 47.4019 14.1989Z" fill="#5A5A5A"/>
<path d="M50.3475 11.221C51.9316 12.8213 52.7675 14.8569 52.8165 16.8032C53.3468 14.6098 52.7712 12.1984 51.0754 10.4845C49.3796 8.76993 46.9958 8.18899 44.8232 8.72647C46.7506 8.77679 48.7648 9.62076 50.3475 11.221Z" fill="#5A5A5A"/>
<path d="M53.2952 8.24307C55.2709 10.239 56.3104 12.7778 56.3753 15.2075C57.0376 12.4705 56.3187 9.46214 54.2042 7.32363C52.0875 5.18589 49.113 4.46161 46.4033 5.13099C48.8067 5.19427 51.3203 6.24713 53.2952 8.24307Z" fill="#5A5A5A"/>
<path d="M54.5304 19.5608C54.9756 19.5608 55.354 19.7183 55.6656 20.0332C55.9772 20.3482 56.1331 20.7306 56.1331 21.1805V24.465C56.1331 24.9149 55.9772 25.2974 55.6656 25.6123C55.354 25.9273 54.9756 26.0848 54.5304 26.0848H49.9449C49.5294 26.0848 49.1658 25.9273 48.8542 25.6123C48.5425 25.2974 48.3867 24.9149 48.3867 24.465V21.1805C48.3867 20.7306 48.5425 20.3482 48.8542 20.0332C49.1658 19.7183 49.5294 19.5608 49.9449 19.5608H54.5304ZM74.4305 19.5608C74.846 19.5608 75.2096 19.7183 75.5212 20.0332C75.8328 20.3482 75.9886 20.7306 75.9886 21.1805V24.465C75.9886 24.9149 75.8328 25.2974 75.5212 25.6123C75.2096 25.9273 74.846 26.0848 74.4305 26.0848H65.4821V51.6407C65.4821 52.0606 65.3263 52.4281 65.0147 52.743C64.703 53.058 64.3394 53.2154 63.9239 53.2154H60.496C60.0508 53.2154 59.6723 53.058 59.3607 52.743C59.0491 52.4281 58.8933 52.0606 58.8933 51.6407V21.1805C58.8933 20.7306 59.0491 20.3482 59.3607 20.0332C59.6723 19.7183 60.0508 19.5608 60.496 19.5608H74.4305ZM93.1285 19.9207C93.4847 20.2207 93.6628 20.6256 93.6628 21.1355V24.51C93.6628 24.8999 93.5515 25.2374 93.3289 25.5223C93.1063 25.8073 92.8021 25.9948 92.4162 26.0848C90.5168 26.4747 88.8992 27.3895 87.5636 28.8293C85.7532 30.749 84.848 33.2461 84.848 36.3206C84.848 39.3951 85.7532 41.9072 87.5636 43.8569C88.8992 45.2667 90.5168 46.1666 92.4162 46.5565C92.8021 46.6465 93.1063 46.834 93.3289 47.1189C93.5515 47.4039 93.6628 47.7413 93.6628 48.1313V51.5057C93.6628 51.9856 93.4847 52.3906 93.1285 52.7205C92.8021 52.9605 92.4608 53.0805 92.1046 53.0805H91.8375C88.3947 52.5106 85.4416 50.9358 82.9782 48.3562C79.8915 45.1467 78.3482 41.1499 78.3482 36.3656C78.3482 31.5814 79.8915 27.5545 82.9782 24.285C85.3822 21.7654 88.3353 20.2057 91.8375 19.6058C92.3124 19.5158 92.7427 19.6208 93.1285 19.9207ZM107.108 24.285C110.194 27.5545 111.738 31.5814 111.738 36.3656C111.738 41.1499 110.194 45.1467 107.108 48.3562C104.644 50.9358 101.691 52.5106 98.2483 53.0805H97.9811C97.625 53.0805 97.2837 52.9605 96.9572 52.7205C96.601 52.3906 96.423 51.9856 96.423 51.5057V48.1313C96.423 47.7413 96.5343 47.4039 96.7569 47.1189C96.9795 46.834 97.2837 46.6465 97.6695 46.5565C99.569 46.1666 101.187 45.2667 102.522 43.8569C104.333 41.9072 105.238 39.3951 105.238 36.3206C105.238 33.2461 104.333 30.749 102.522 28.8293C101.187 27.3895 99.569 26.4747 97.6695 26.0848C97.2837 25.9948 96.9795 25.8073 96.7569 25.5223C96.5343 25.2374 96.423 24.8999 96.423 24.51V21.1355C96.423 20.6256 96.6085 20.2207 96.9795 19.9207C97.3505 19.6208 97.7734 19.5158 98.2483 19.6058C101.75 20.2057 104.704 21.7654 107.108 24.285ZM138.182 40.0325L144.904 50.4259C145.231 50.9658 145.246 51.5057 144.949 52.0456C144.83 52.2856 144.645 52.4806 144.392 52.6305C144.14 52.7805 143.88 52.8555 143.613 52.8555H139.562C139.295 52.8555 139.043 52.788 138.805 52.653C138.568 52.5181 138.39 52.3456 138.271 52.1356L131.504 41.2923H123.58V51.2808C123.58 51.7007 123.424 52.0681 123.112 52.3831C122.801 52.698 122.437 52.8555 122.022 52.8555H118.638C118.223 52.8555 117.859 52.698 117.547 52.3831C117.236 52.0681 117.08 51.7007 117.08 51.2808V36.4781C117.08 36.0582 117.236 35.6907 117.547 35.3758C117.859 35.0608 118.223 34.9034 118.638 34.9034H132.35C134.962 34.9034 136.698 34.1535 137.559 32.6537C137.856 32.1738 138.004 31.4839 138.004 30.584C138.004 29.1743 137.544 28.0644 136.624 27.2546C135.674 26.3847 134.309 25.9498 132.528 25.9498H118.638C118.223 25.9498 117.859 25.7923 117.547 25.4774C117.236 25.1624 117.08 24.795 117.08 24.375V21.1355C117.08 20.7156 117.236 20.3482 117.547 20.0332C117.859 19.7183 118.223 19.5608 118.638 19.5608H132.929C136.401 19.5608 139.176 20.5506 141.254 22.5303C143.42 24.51 144.504 27.1946 144.504 30.584C144.504 32.7737 144.029 34.6409 143.079 36.1856C142.129 37.7304 140.749 38.9077 138.939 39.7176L138.182 40.0325Z" fill="#5A5A5A"/>
<path d="M59.3752 61.8949C59.1731 61.8609 59.0047 61.7587 58.87 61.5885C58.7352 61.4183 58.6679 61.2311 58.6679 61.0269V59.0866C58.6679 58.8314 58.7689 58.6016 58.971 58.3974C59.1899 58.2272 59.4341 58.1676 59.7036 58.2186C61.6908 58.559 63.3748 59.4526 64.7557 60.8992C65.463 61.6481 66.0356 62.4991 66.4735 63.4522C66.5408 63.5713 66.5703 63.7075 66.5619 63.8607C66.5535 64.0138 66.5072 64.1585 66.4229 64.2947C66.3387 64.4308 66.2335 64.5372 66.1072 64.6138C65.9809 64.6904 65.8419 64.7287 65.6904 64.7287H63.5432C63.3916 64.7287 63.2485 64.6904 63.1138 64.6138C62.9791 64.5372 62.8696 64.4308 62.7854 64.2947C62.5496 63.9373 62.3307 63.6564 62.1286 63.4522C61.3708 62.6693 60.453 62.1502 59.3752 61.8949ZM56.7986 58.3974C57.0007 58.6016 57.1017 58.8314 57.1017 59.0866V61.0269C57.1017 61.2311 57.0343 61.4183 56.8996 61.5885C56.7649 61.7587 56.5965 61.8609 56.3944 61.8949C55.3166 62.1502 54.3988 62.6693 53.641 63.4522C52.5969 64.5925 52.0748 66.0179 52.0748 67.7284C52.0748 69.4389 52.5969 70.8643 53.641 72.0046C54.3651 72.7875 55.2829 73.3066 56.3944 73.5619C56.5965 73.5959 56.7649 73.698 56.8996 73.8682C57.0343 74.0384 57.1017 74.2257 57.1017 74.4299V76.3701C57.1017 76.6425 56.9922 76.8722 56.7733 77.0594C56.6049 77.1956 56.4197 77.2637 56.2176 77.2637H56.066C54.0451 76.8892 52.3611 75.9872 51.0138 74.5575C49.2624 72.7364 48.3867 70.4601 48.3867 67.7284C48.3867 64.9967 49.2624 62.7204 51.0138 60.8992C52.3779 59.4526 54.062 58.559 56.066 58.2186C56.3355 58.1676 56.5796 58.2272 56.7986 58.3974ZM67.3576 67.205C67.3744 67.3242 67.3829 67.5029 67.3829 67.7412C67.3829 68.1156 67.3576 68.5496 67.3071 69.0432C67.0545 71.2047 66.204 73.0428 64.7557 74.5575C63.3748 76.0042 61.6908 76.9063 59.7036 77.2637H59.552C59.3499 77.2637 59.1563 77.1956 58.971 77.0594C58.7689 76.8552 58.6679 76.6254 58.6679 76.3701V74.4299C58.6679 74.2257 58.7352 74.0384 58.87 73.8682C59.0047 73.698 59.1731 73.5959 59.3752 73.5619C60.4867 73.3066 61.4045 72.7875 62.1286 72.0046C62.718 71.3749 63.139 70.6515 63.3916 69.8346H58.0364C57.7837 69.8346 57.5732 69.7495 57.4048 69.5793C57.2364 69.4091 57.1522 69.1963 57.1522 68.941V67.1284C57.1522 66.8902 57.2364 66.6817 57.4048 66.503C57.5732 66.3243 57.7837 66.2349 58.0364 66.2349H66.4735C66.7092 66.2349 66.9113 66.3158 67.0797 66.4774C67.2481 66.6391 67.3408 66.8391 67.3576 67.0774V67.205ZM82.1352 69.809L85.9496 75.7064C86.1348 76.0127 86.1432 76.3191 85.9748 76.6254C85.9075 76.7616 85.8022 76.8722 85.6591 76.9573C85.5159 77.0424 85.3686 77.085 85.217 77.085H82.9183C82.7667 77.085 82.6236 77.0467 82.4888 76.9701C82.3541 76.8935 82.2531 76.7956 82.1857 76.6765L78.3461 70.5239H73.8496V76.1914C73.8496 76.4297 73.7612 76.6382 73.5844 76.8169C73.4076 76.9956 73.2013 77.085 72.9655 77.085H71.0457C70.8099 77.085 70.6036 76.9956 70.4268 76.8169C70.25 76.6382 70.1616 76.4297 70.1616 76.1914V67.7922C70.1616 67.5539 70.25 67.3454 70.4268 67.1667C70.6036 66.988 70.8099 66.8987 71.0457 66.8987H78.826C80.308 66.8987 81.2932 66.4732 81.7815 65.6222C81.9499 65.3499 82.0341 64.9584 82.0341 64.4478C82.0341 63.6479 81.7731 63.0182 81.2511 62.5587C80.7122 62.0651 79.9375 61.8183 78.9271 61.8183H71.0457C70.8099 61.8183 70.6036 61.729 70.4268 61.5502C70.25 61.3715 70.1616 61.163 70.1616 60.9248V59.0866C70.1616 58.8484 70.25 58.6399 70.4268 58.4612C70.6036 58.2825 70.8099 58.1931 71.0457 58.1931H79.1544C81.1247 58.1931 82.6993 58.7548 83.8782 59.8781C85.1075 61.0014 85.7222 62.5246 85.7222 64.4478C85.7222 65.6903 85.4528 66.7498 84.9139 67.6263C84.375 68.5028 83.5919 69.1708 82.5646 69.6303L82.1352 69.809ZM96.3318 58.3974C96.5339 58.5675 96.6349 58.7973 96.6349 59.0866V61.0014C96.6349 61.2226 96.5717 61.4141 96.4454 61.5758C96.3191 61.7375 96.1465 61.8438 95.9276 61.8949C94.8498 62.1162 93.932 62.6353 93.1742 63.4522C92.1469 64.5415 91.6333 65.9583 91.6333 67.7029C91.6333 69.4474 92.1469 70.8728 93.1742 71.9791C93.932 72.779 94.8498 73.2896 95.9276 73.5108C96.1465 73.5619 96.3191 73.6683 96.4454 73.8299C96.5717 73.9916 96.6349 74.1831 96.6349 74.4044V76.3191C96.6349 76.5914 96.5339 76.8212 96.3318 77.0084C96.1465 77.1445 95.9529 77.2126 95.7508 77.2126H95.5992C93.6457 76.8892 91.9701 75.9957 90.5723 74.532C88.8209 72.7109 87.9452 70.443 87.9452 67.7284C87.9452 65.0138 88.8209 62.7289 90.5723 60.8737C91.9364 59.4441 93.612 58.559 95.5992 58.2186C95.8687 58.1676 96.1128 58.2272 96.3318 58.3974ZM104.264 60.8737C106.015 62.7289 106.891 65.0138 106.891 67.7284C106.891 70.443 106.015 72.7109 104.264 74.532C102.866 75.9957 101.19 76.8892 99.2368 77.2126H99.0852C98.8831 77.2126 98.6894 77.1445 98.5042 77.0084C98.3021 76.8212 98.2011 76.5914 98.2011 76.3191V74.4044C98.2011 74.1831 98.2642 73.9916 98.3905 73.8299C98.5168 73.6683 98.6894 73.5619 98.9084 73.5108C99.9862 73.2896 100.904 72.779 101.662 71.9791C102.689 70.8728 103.203 69.4474 103.203 67.7029C103.203 65.9583 102.689 64.5415 101.662 63.4522C100.904 62.6353 99.9862 62.1162 98.9084 61.8949C98.6894 61.8438 98.5168 61.7375 98.3905 61.5758C98.2642 61.4141 98.2011 61.2226 98.2011 61.0014V59.0866C98.2011 58.7973 98.3063 58.5675 98.5168 58.3974C98.7273 58.2272 98.9673 58.1676 99.2368 58.2186C101.224 58.559 102.9 59.4441 104.264 60.8737ZM116.439 73.5874C116.641 73.6555 116.801 73.7704 116.919 73.9321C117.037 74.0938 117.096 74.2767 117.096 74.481V76.4467C117.096 76.719 116.987 76.9488 116.768 77.136C116.599 77.2722 116.414 77.3403 116.212 77.3403C116.128 77.3403 116.069 77.3317 116.035 77.3147C114.469 77.0084 113.122 76.2765 111.993 75.1192C110.478 73.5534 109.72 71.494 109.72 68.941V59.1122C109.72 58.8569 109.808 58.6399 109.985 58.4612C110.162 58.2825 110.368 58.1931 110.604 58.1931H112.549C112.802 58.1931 113.017 58.2825 113.193 58.4612C113.37 58.6399 113.459 58.8569 113.459 59.1122V68.9921C113.459 70.609 113.913 71.8429 114.823 72.6939C115.294 73.1364 115.833 73.4342 116.439 73.5874ZM125.154 58.1931C125.407 58.1931 125.622 58.2825 125.799 58.4612C125.975 58.6399 126.064 58.8569 126.064 59.1122V68.941C126.064 71.494 125.306 73.5534 123.79 75.1192C122.662 76.2765 121.315 77.0084 119.749 77.3147C119.715 77.3317 119.656 77.3403 119.572 77.3403C119.37 77.3403 119.184 77.2722 119.016 77.136C118.797 76.9658 118.688 76.7276 118.688 76.4212V74.4554C118.688 74.2682 118.747 74.0938 118.864 73.9321C118.982 73.7704 119.142 73.6555 119.344 73.5874C119.984 73.4002 120.523 73.1024 120.961 72.6939C121.87 71.8769 122.325 70.643 122.325 68.9921V59.1122C122.325 58.8569 122.414 58.6399 122.59 58.4612C122.767 58.2825 122.982 58.1931 123.235 58.1931H125.154ZM138.467 58.1931C140.471 58.1931 142.088 58.776 143.317 59.9419C144.546 61.1077 145.161 62.6608 145.161 64.601C145.161 66.5413 144.555 68.0901 143.342 69.2474C142.13 70.4047 140.505 70.9834 138.467 70.9834H133.642V76.1914C133.642 76.4297 133.554 76.6382 133.377 76.8169C133.2 76.9956 132.994 77.085 132.758 77.085H130.838C130.602 77.085 130.396 76.9956 130.219 76.8169C130.042 76.6382 129.954 76.4297 129.954 76.1914V68.2773C129.954 68.039 130.042 67.8305 130.219 67.6518C130.396 67.4731 130.602 67.3837 130.838 67.3837H138.315C139.444 67.3837 140.252 67.137 140.74 66.6434C141.229 66.2009 141.473 65.5286 141.473 64.6266C141.473 63.7245 141.22 63.031 140.715 62.5459C140.21 62.0608 139.41 61.8183 138.315 61.8183H130.838C130.602 61.8183 130.396 61.729 130.219 61.5502C130.042 61.3715 129.954 61.163 129.954 60.9248V59.0866C129.954 58.8484 130.042 58.6399 130.219 58.4612C130.396 58.2825 130.602 58.1931 130.838 58.1931H138.467Z" fill="#5A5A5A"/>
</svg>
