<svg width="77" height="44" viewBox="0 0 77 44" fill="none" xmlns="http://www.w3.org/2000/svg">
<path d="M5.18675 0.11499C5.52163 0.11499 5.80628 0.233991 6.0407 0.471992C6.27511 0.709993 6.39232 0.998993 6.39232 1.33899V3.821C6.39232 4.16101 6.27511 4.45001 6.0407 4.68801C5.80628 4.92601 5.52163 5.04501 5.18675 5.04501H1.7375C1.42495 5.04501 1.15147 4.92601 0.917052 4.68801C0.682637 4.45001 0.56543 4.16101 0.56543 3.821V1.33899C0.56543 0.998993 0.682637 0.709993 0.917052 0.471992C1.15147 0.233991 1.42495 0.11499 1.7375 0.11499H5.18675ZM20.1558 0.11499C20.4684 0.11499 20.7419 0.233991 20.9763 0.471992C21.2107 0.709993 21.3279 0.998993 21.3279 1.33899V3.821C21.3279 4.16101 21.2107 4.45001 20.9763 4.68801C20.7419 4.92601 20.4684 5.04501 20.1558 5.04501H13.4248V24.3571C13.4248 24.6744 13.3076 24.9521 13.0731 25.1901C12.8387 25.4281 12.5652 25.5471 12.2527 25.5471H9.67413C9.33925 25.5471 9.0546 25.4281 8.82019 25.1901C8.58577 24.9521 8.46856 24.6744 8.46856 24.3571V1.33899C8.46856 0.998993 8.58577 0.709993 8.82019 0.471992C9.0546 0.233991 9.33925 0.11499 9.67413 0.11499H20.1558ZM34.2207 0.386991C34.4886 0.613658 34.6226 0.91966 34.6226 1.30499V3.855C34.6226 4.14967 34.5389 4.40467 34.3714 4.62001C34.204 4.83534 33.9752 4.97701 33.6849 5.04501C32.2561 5.33968 31.0394 6.03101 30.0347 7.11902C28.6729 8.56969 27.992 10.4567 27.992 12.78C27.992 15.1034 28.6729 17.0017 30.0347 18.4751C31.0394 19.5404 32.2561 20.2204 33.6849 20.5151C33.9752 20.5831 34.204 20.7247 34.3714 20.9401C34.5389 21.1554 34.6226 21.4104 34.6226 21.7051V24.2551C34.6226 24.6177 34.4886 24.9237 34.2207 25.1731C33.9751 25.3544 33.7184 25.4451 33.4505 25.4451H33.2496C30.6599 25.0144 28.4385 23.8244 26.5855 21.8751C24.2637 19.4497 23.1028 16.4294 23.1028 12.814C23.1028 9.19869 24.2637 6.15568 26.5855 3.685C28.3938 1.781 30.6152 0.602325 33.2496 0.14899C33.6068 0.0809901 33.9305 0.160323 34.2207 0.386991ZM44.7359 3.685C47.0577 6.15568 48.2187 9.19869 48.2187 12.814C48.2187 16.4294 47.0577 19.4497 44.7359 21.8751C42.8829 23.8244 40.6616 25.0144 38.0718 25.4451H37.8709C37.603 25.4451 37.3463 25.3544 37.1007 25.1731C36.8328 24.9237 36.6988 24.6177 36.6988 24.2551V21.7051C36.6988 21.4104 36.7826 21.1554 36.95 20.9401C37.1174 20.7247 37.3463 20.5831 37.6365 20.5151C39.0653 20.2204 40.282 19.5404 41.2867 18.4751C42.6485 17.0017 43.3294 15.1034 43.3294 12.78C43.3294 10.4567 42.6485 8.56969 41.2867 7.11902C40.282 6.03101 39.0653 5.33968 37.6365 5.04501C37.3463 4.97701 37.1174 4.83534 36.95 4.62001C36.7826 4.40467 36.6988 4.14967 36.6988 3.855V1.30499C36.6988 0.91966 36.8384 0.613658 37.1174 0.386991C37.3965 0.160323 37.7146 0.0809901 38.0718 0.14899C40.7062 0.602325 42.9276 1.781 44.7359 3.685ZM68.1104 15.585L73.1671 23.4391C73.4127 23.8471 73.4239 24.2551 73.2006 24.6631C73.1113 24.8444 72.9718 24.9917 72.782 25.1051C72.5922 25.2184 72.3969 25.2751 72.196 25.2751H69.1486C68.9476 25.2751 68.7579 25.2241 68.5793 25.1221C68.4007 25.0201 68.2667 24.8897 68.1774 24.7311L63.0873 16.5371H57.1264V24.0851C57.1264 24.4024 57.0092 24.6801 56.7748 24.9181C56.5404 25.1561 56.2669 25.2751 55.9544 25.2751H53.4093C53.0967 25.2751 52.8232 25.1561 52.5888 24.9181C52.3544 24.6801 52.2372 24.4024 52.2372 24.0851V12.899C52.2372 12.5817 52.3544 12.304 52.5888 12.066C52.8232 11.828 53.0967 11.709 53.4093 11.709H63.7235C65.6882 11.709 66.9942 11.1424 67.6416 10.009C67.8649 9.64636 67.9765 9.12502 67.9765 8.44502C67.9765 7.37968 67.6305 6.54101 66.9384 5.92901C66.224 5.27168 65.197 4.94301 63.8575 4.94301H53.4093C53.0967 4.94301 52.8232 4.82401 52.5888 4.58601C52.3544 4.34801 52.2372 4.07034 52.2372 3.753V1.30499C52.2372 0.98766 52.3544 0.709993 52.5888 0.471992C52.8232 0.233991 53.0967 0.11499 53.4093 0.11499H64.1589C66.7709 0.11499 68.8583 0.862993 70.4211 2.359C72.0509 3.855 72.8657 5.88368 72.8657 8.44502C72.8657 10.0997 72.5085 11.5107 71.7941 12.678C71.0797 13.8454 70.0416 14.735 68.6797 15.347L68.1104 15.585Z" fill="url(#paint0_linear)"/>
<path d="M8.83107 32.1061C8.67905 32.0804 8.55238 32.0032 8.45104 31.8746C8.3497 31.746 8.29903 31.6045 8.29903 31.4501V29.9839C8.29903 29.791 8.37503 29.6174 8.52704 29.4631C8.69172 29.3344 8.8754 29.2894 9.07809 29.328C10.5729 29.5852 11.8396 30.2605 12.8784 31.3537C13.4104 31.9196 13.8411 32.5627 14.1705 33.2829C14.2211 33.3729 14.2433 33.4758 14.237 33.5916C14.2306 33.7073 14.1958 33.8166 14.1325 33.9195C14.0691 34.0224 13.99 34.1028 13.895 34.1607C13.8 34.2186 13.6954 34.2475 13.5814 34.2475H11.9663C11.8523 34.2475 11.7446 34.2186 11.6433 34.1607C11.5419 34.1028 11.4596 34.0224 11.3963 33.9195C11.2189 33.6494 11.0542 33.4372 10.9022 33.2829C10.3322 32.6913 9.6418 32.299 8.83107 32.1061ZM6.89292 29.4631C7.04493 29.6174 7.12093 29.791 7.12093 29.9839V31.4501C7.12093 31.6045 7.07026 31.746 6.96892 31.8746C6.86758 32.0032 6.74091 32.0804 6.58889 32.1061C5.77816 32.299 5.08778 32.6913 4.51773 33.2829C3.73234 34.1446 3.33964 35.2218 3.33964 36.5143C3.33964 37.8069 3.73234 38.884 4.51773 39.7458C5.06244 40.3374 5.75283 40.7297 6.58889 40.9226C6.74091 40.9483 6.86758 41.0255 6.96892 41.1541C7.07026 41.2827 7.12093 41.4242 7.12093 41.5785V43.0447C7.12093 43.2505 7.0386 43.4241 6.87392 43.5656C6.74724 43.6685 6.60789 43.7199 6.45588 43.7199H6.34187C4.82176 43.437 3.55499 42.7553 2.54158 41.675C1.22415 40.2988 0.56543 38.5786 0.56543 36.5143C0.56543 34.4501 1.22415 32.7299 2.54158 31.3537C3.56766 30.2605 4.83443 29.5852 6.34187 29.328C6.54456 29.2894 6.72824 29.3344 6.89292 29.4631ZM14.8355 36.1188C14.8482 36.2089 14.8545 36.3439 14.8545 36.524C14.8545 36.8069 14.8355 37.1349 14.7975 37.5079C14.6075 39.1413 13.9678 40.5303 12.8784 41.675C11.8396 42.7682 10.5729 43.4499 9.07809 43.7199H8.96408C8.81206 43.7199 8.66639 43.6685 8.52704 43.5656C8.37503 43.4113 8.29903 43.2376 8.29903 43.0447V41.5785C8.29903 41.4242 8.3497 41.2827 8.45104 41.1541C8.55238 41.0255 8.67905 40.9483 8.83107 40.9226C9.66713 40.7297 10.3575 40.3374 10.9022 39.7458C11.3456 39.2699 11.6623 38.7233 11.8523 38.1059H7.82399C7.63397 38.1059 7.47563 38.0416 7.34895 37.913C7.22228 37.7844 7.15894 37.6236 7.15894 37.4307V36.061C7.15894 35.8809 7.22228 35.7234 7.34895 35.5883C7.47563 35.4533 7.63397 35.3857 7.82399 35.3857H14.1705C14.3478 35.3857 14.4998 35.4468 14.6265 35.569C14.7532 35.6912 14.8229 35.8423 14.8355 36.0224V36.1188ZM25.9514 38.0866L28.8206 42.5431C28.96 42.7746 28.9663 43.0061 28.8396 43.2376C28.7889 43.3405 28.7098 43.4241 28.6021 43.4884C28.4944 43.5527 28.3836 43.5849 28.2696 43.5849H26.5404C26.4264 43.5849 26.3187 43.556 26.2174 43.4981C26.1161 43.4402 26.0401 43.3663 25.9894 43.2762L23.1012 38.6268H19.7189V42.9097C19.7189 43.0897 19.6524 43.2473 19.5194 43.3823C19.3864 43.5174 19.2312 43.5849 19.0539 43.5849H17.6097C17.4324 43.5849 17.2772 43.5174 17.1442 43.3823C17.0112 43.2473 16.9447 43.0897 16.9447 42.9097V36.5626C16.9447 36.3825 17.0112 36.2249 17.1442 36.0899C17.2772 35.9549 17.4324 35.8873 17.6097 35.8873H23.4622C24.5769 35.8873 25.318 35.5658 25.6854 34.9227C25.812 34.7169 25.8754 34.4211 25.8754 34.0353C25.8754 33.4308 25.679 32.9549 25.2863 32.6077C24.881 32.2347 24.2983 32.0482 23.5382 32.0482H17.6097C17.4324 32.0482 17.2772 31.9807 17.1442 31.8456C17.0112 31.7106 16.9447 31.553 16.9447 31.373V29.9839C16.9447 29.8039 17.0112 29.6463 17.1442 29.5113C17.2772 29.3762 17.4324 29.3087 17.6097 29.3087H23.7092C25.1913 29.3087 26.3758 29.7331 27.2625 30.582C28.1872 31.4309 28.6496 32.5819 28.6496 34.0353C28.6496 34.9742 28.4469 35.7748 28.0415 36.4372C27.6362 37.0995 27.0471 37.6043 26.2744 37.9516L25.9514 38.0866ZM36.6302 29.4631C36.7822 29.5917 36.8582 29.7653 36.8582 29.9839V31.4309C36.8582 31.598 36.8107 31.7427 36.7157 31.8649C36.6207 31.9871 36.4909 32.0675 36.3262 32.1061C35.5155 32.2733 34.8251 32.6655 34.255 33.2829C33.4823 34.106 33.0959 35.1767 33.0959 36.495C33.0959 37.8133 33.4823 38.8905 34.255 39.7265C34.8251 40.331 35.5155 40.7168 36.3262 40.884C36.4909 40.9226 36.6207 41.003 36.7157 41.1252C36.8107 41.2473 36.8582 41.392 36.8582 41.5592V43.0061C36.8582 43.2119 36.7822 43.3855 36.6302 43.527C36.4909 43.6299 36.3452 43.6814 36.1932 43.6814H36.0792C34.6097 43.437 33.3493 42.7618 32.2979 41.6557C30.9804 40.2795 30.3217 38.5657 30.3217 36.5143C30.3217 34.4629 30.9804 32.7363 32.2979 31.3344C33.324 30.254 34.5844 29.5852 36.0792 29.328C36.2818 29.2894 36.4655 29.3344 36.6302 29.4631ZM42.5967 31.3344C43.9141 32.7363 44.5728 34.4629 44.5728 36.5143C44.5728 38.5657 43.9141 40.2795 42.5967 41.6557C41.5453 42.7618 40.2848 43.437 38.8154 43.6814H38.7014C38.5494 43.6814 38.4037 43.6299 38.2643 43.527C38.1123 43.3855 38.0363 43.2119 38.0363 43.0061V41.5592C38.0363 41.392 38.0838 41.2473 38.1788 41.1252C38.2738 41.003 38.4037 40.9226 38.5684 40.884C39.3791 40.7168 40.0695 40.331 40.6395 39.7265C41.4122 38.8905 41.7986 37.8133 41.7986 36.495C41.7986 35.1767 41.4122 34.106 40.6395 33.2829C40.0695 32.6655 39.3791 32.2733 38.5684 32.1061C38.4037 32.0675 38.2738 31.9871 38.1788 31.8649C38.0838 31.7427 38.0363 31.598 38.0363 31.4309V29.9839C38.0363 29.7653 38.1155 29.5917 38.2738 29.4631C38.4322 29.3344 38.6127 29.2894 38.8154 29.328C40.3102 29.5852 41.5706 30.254 42.5967 31.3344ZM51.7554 40.9419C51.9074 40.9933 52.0277 41.0801 52.1164 41.2023C52.2051 41.3245 52.2494 41.4628 52.2494 41.6171V43.1026C52.2494 43.3084 52.1671 43.482 52.0024 43.6235C51.8757 43.7264 51.7364 43.7778 51.5844 43.7778C51.521 43.7778 51.4767 43.7714 51.4513 43.7585C50.2733 43.527 49.2598 42.974 48.4111 42.0994C47.271 40.9162 46.701 39.3599 46.701 37.4307V30.0032C46.701 29.8103 46.7675 29.6463 46.9005 29.5113C47.0335 29.3762 47.1887 29.3087 47.366 29.3087H48.8292C49.0192 29.3087 49.1807 29.3762 49.3137 29.5113C49.4467 29.6463 49.5132 29.8103 49.5132 30.0032V37.4693C49.5132 38.6911 49.8552 39.6236 50.5393 40.2667C50.894 40.6011 51.2993 40.8261 51.7554 40.9419ZM58.3109 29.3087C58.5009 29.3087 58.6624 29.3762 58.7954 29.5113C58.9284 29.6463 58.9949 29.8103 58.9949 30.0032V37.4307C58.9949 39.3599 58.4249 40.9162 57.2848 42.0994C56.4361 42.974 55.4227 43.527 54.2446 43.7585C54.2192 43.7714 54.1749 43.7778 54.1116 43.7778C53.9595 43.7778 53.8202 43.7264 53.6935 43.6235C53.5288 43.4949 53.4465 43.3148 53.4465 43.0833V41.5978C53.4465 41.4563 53.4908 41.3245 53.5795 41.2023C53.6682 41.0801 53.7885 40.9933 53.9405 40.9419C54.4219 40.8004 54.8273 40.5753 55.1566 40.2667C55.8407 39.6493 56.1827 38.7169 56.1827 37.4693V30.0032C56.1827 29.8103 56.2492 29.6463 56.3822 29.5113C56.5152 29.3762 56.6768 29.3087 56.8668 29.3087H58.3109ZM68.3247 29.3087C69.8321 29.3087 71.0482 29.7492 71.9729 30.6302C72.8977 31.5112 73.36 32.6848 73.36 34.151C73.36 35.6172 72.904 36.7876 71.9919 37.6622C71.0799 38.5368 69.8574 38.9741 68.3247 38.9741H64.6954V42.9097C64.6954 43.0897 64.6289 43.2473 64.4959 43.3823C64.3628 43.5174 64.2077 43.5849 64.0303 43.5849H62.5862C62.4089 43.5849 62.2537 43.5174 62.1207 43.3823C61.9877 43.2473 61.9212 43.0897 61.9212 42.9097V36.9291C61.9212 36.7491 61.9877 36.5915 62.1207 36.4565C62.2537 36.3214 62.4089 36.2539 62.5862 36.2539H68.2106C69.0594 36.2539 69.6674 36.0674 70.0348 35.6944C70.4021 35.36 70.5858 34.852 70.5858 34.1703C70.5858 33.4887 70.3958 32.9646 70.0158 32.598C69.6357 32.2315 69.034 32.0482 68.2106 32.0482H62.5862C62.4089 32.0482 62.2537 31.9807 62.1207 31.8456C61.9877 31.7106 61.9212 31.553 61.9212 31.373V29.9839C61.9212 29.8039 61.9877 29.6463 62.1207 29.5113C62.2537 29.3762 62.4089 29.3087 62.5862 29.3087H68.3247Z" fill="url(#paint1_linear)"/>
<defs>
<linearGradient id="paint0_linear" x1="0.56543" y1="0.11499" x2="73.3601" y2="0.11499" gradientUnits="userSpaceOnUse">
<stop stop-color="#2D388A"/>
<stop offset="1" stop-color="#00AEEF"/>
</linearGradient>
<linearGradient id="paint1_linear" x1="0.56543" y1="29.3087" x2="73.36" y2="29.3087" gradientUnits="userSpaceOnUse">
<stop stop-color="#2D388A"/>
<stop offset="1" stop-color="#00AEEF"/>
</linearGradient>
</defs>
</svg>
