<svg width="30" height="30" viewBox="0 0 30 30" fill="none" xmlns="http://www.w3.org/2000/svg">
<path d="M20.965 0H17.8401C15.4493 0 13.7321 0.567493 12.6884 1.7021C11.6445 2.83708 11.1229 4.50862 11.1229 6.71741V8.82284C11.1229 9.37925 10.672 9.8302 10.1156 9.8302H9.03568C8.47927 9.8302 8.02832 10.2812 8.02832 10.8376V13.9926C8.02832 14.549 8.47927 15 9.03568 15H10.1156C10.672 15 11.1229 15.4509 11.1229 16.0073V28.9926C11.1229 29.549 11.5739 29.9999 12.1303 29.9999H16.323C16.8794 29.9999 17.3303 29.5489 17.3303 28.9926V16.0074C17.3303 15.4509 17.7813 15 18.3377 15H20.4551C21.0116 15 21.5099 14.5514 21.5683 13.9984L21.9027 10.8319C21.9612 10.2785 21.5576 9.8302 21.0011 9.8302H18.3374C17.7809 9.8302 17.33 9.37925 17.33 8.82284V7.24529C17.33 6.8571 17.3481 6.5566 17.3847 6.34404C17.421 6.13181 17.5029 5.9226 17.6305 5.71608C17.7577 5.50995 17.9643 5.36724 18.2493 5.28828C18.5344 5.20938 18.9138 5.16977 19.387 5.16977H20.9645C21.5209 5.16977 21.9718 4.71881 21.9718 4.1624V1.00736C21.9723 0.450955 21.5213 0 20.965 0Z" fill="#363636"/>
</svg>
