<svg width="105" height="106" viewBox="0 0 105 106" fill="none" xmlns="http://www.w3.org/2000/svg">
<circle cx="52.5" cy="52.8938" r="52.5" fill="#168BAA"/>
<path d="M67.9145 82.3072H35.2302C34.5859 82.3072 34.063 82.8239 34.063 83.4604V85.7669C34.063 86.4035 34.5859 86.9201 35.2302 86.9201C35.8745 86.9201 36.3975 86.4035 36.3975 85.7669V84.6137H67.9145C68.5588 84.6137 69.0818 84.0971 69.0818 83.4605C69.0818 82.824 68.5589 82.3072 67.9145 82.3072Z" fill="#F0F0F0"/>
<path d="M43.4009 46.5572C43.4009 47.1937 43.9238 47.7104 44.5681 47.7104H49.2374C49.8817 47.7104 50.4047 47.1937 50.4047 46.5572V39.6378C50.4047 39.0013 49.8817 38.4846 49.2374 38.4846H44.5683C43.924 38.4846 43.401 39.0013 43.401 39.6378V46.5572H43.4009ZM45.7355 40.7911H48.0702V45.404H45.7355V40.7911Z" fill="#F0F0F0"/>
<path d="M32.8955 31.565H18.888C18.2437 31.565 17.7207 32.0817 17.7207 32.7182V55.7829C17.7207 56.4194 18.2437 56.9361 18.888 56.9361C19.5322 56.9361 20.0552 56.4194 20.0552 55.7829V33.8715H32.8955C33.5398 33.8715 34.0628 33.3549 34.0628 32.7183C34.0628 32.0818 33.5399 31.565 32.8955 31.565Z" fill="#F0F0F0"/>
<path d="M73.751 74.2346C73.751 74.8711 74.2739 75.3878 74.9182 75.3878H79.5874C80.2317 75.3878 80.7546 74.8711 80.7546 74.2346V67.3152C80.7546 66.6787 80.2317 66.162 79.5874 66.162H74.9182C74.2739 66.162 73.751 66.6787 73.751 67.3152V74.2346ZM76.0856 68.4685H78.4203V73.0814H76.0856V68.4685Z" fill="#F0F0F0"/>
<path d="M23.5572 59.2429C17.7872 59.2429 17.7207 74.085 17.7207 74.2348C17.7207 77.0199 19.7296 79.3483 22.3898 79.8845V85.7672C22.3898 86.4038 22.9128 86.9204 23.5571 86.9204C24.2014 86.9204 24.7243 86.4038 24.7243 85.7672V79.8845C27.3846 79.3483 29.3935 77.0199 29.3935 74.2348C29.3936 74.085 29.3271 59.2429 23.5572 59.2429ZM23.5572 77.6945C21.6265 77.6945 20.0553 76.1423 20.0553 74.2348C20.0553 68.4894 21.6172 61.5492 23.5572 61.5492C25.4972 61.5492 27.0591 68.4894 27.0591 74.2348C27.0591 76.1423 25.4879 77.6945 23.5572 77.6945Z" fill="#F0F0F0"/>
<path d="M30.5606 52.3233H25.8914C25.2471 52.3233 24.7241 52.84 24.7241 53.4765V55.783C24.7241 56.4195 25.2471 56.9362 25.8914 56.9362C26.5357 56.9362 27.0586 56.4195 27.0586 55.783V54.6298H29.3933V60.396C29.3933 61.0326 29.9162 61.5492 30.5605 61.5492C31.2048 61.5492 31.7278 61.0326 31.7278 60.396V53.4766C31.7279 52.84 31.2049 52.3233 30.5606 52.3233Z" fill="#F0F0F0"/>
<path d="M74.9182 47.7104H79.5874C80.2317 47.7104 80.7546 47.1937 80.7546 46.5572V39.6378C80.7546 39.0013 80.2317 38.4846 79.5874 38.4846H74.9182C74.2739 38.4846 73.751 39.0013 73.751 39.6378V46.5572C73.751 47.1937 74.2739 47.7104 74.9182 47.7104ZM76.0856 40.791H78.4203V45.4039H76.0856V40.791Z" fill="#F0F0F0"/>
<path d="M30.5606 38.4846H25.8914C25.2471 38.4846 24.7241 39.0013 24.7241 39.6378V46.5572C24.7241 47.1937 25.2471 47.7104 25.8914 47.7104H30.5605C31.2048 47.7104 31.7278 47.1937 31.7278 46.5572V39.6378C31.7279 39.0013 31.2049 38.4846 30.5606 38.4846ZM29.3933 45.404H27.0588V40.7911H29.3934V45.404H29.3933Z" fill="#F0F0F0"/>
<path d="M55.0742 46.5572C55.0742 47.1937 55.5972 47.7104 56.2415 47.7104H60.9106C61.5549 47.7104 62.0779 47.1937 62.0779 46.5572V39.6378C62.0779 39.0013 61.5549 38.4846 60.9106 38.4846H56.2415C55.5972 38.4846 55.0742 39.0013 55.0742 39.6378V46.5572ZM57.4087 40.7911H59.7434V45.404H57.4087V40.7911Z" fill="#F0F0F0"/>
<path d="M86.5913 31.565H72.5838C71.9395 31.565 71.4165 32.0817 71.4165 32.7182C71.4165 33.3547 71.9395 33.8714 72.5838 33.8714H85.4241V80.213C85.0576 80.0838 84.6688 80.0008 84.2568 80.0008C84.0549 80.0008 83.8541 80.0181 83.6568 80.0527C82.8514 78.6192 81.3188 77.6943 79.5877 77.6943C77.8566 77.6943 76.3239 78.6192 75.5185 80.0527C75.3212 80.0181 75.1204 80.0008 74.9185 80.0008C72.9878 80.0008 71.4166 81.5531 71.4166 83.4605C71.4166 85.3679 72.9878 86.9202 74.9185 86.9202H84.2567C86.1874 86.9202 87.7586 85.3679 87.7586 83.4605V32.7182C87.7586 32.0817 87.2356 31.565 86.5913 31.565ZM84.2567 84.6137H74.9183C74.2751 84.6137 73.751 84.0959 73.751 83.4605C73.751 82.825 74.2751 82.3073 74.9183 82.3073C75.1423 82.3073 75.3548 82.3707 75.5509 82.4953C75.8707 82.6983 76.27 82.7352 76.6226 82.5945C76.9751 82.4538 77.2354 82.1516 77.3206 81.786C77.567 80.7354 78.4996 80.0008 79.5875 80.0008C80.6754 80.0008 81.6081 80.7354 81.8545 81.786C81.9397 82.1516 82.2 82.4538 82.5525 82.5945C82.9039 82.7352 83.3042 82.6983 83.6242 82.4953C84.384 82.0109 85.4241 82.6037 85.4241 83.4605C85.4239 84.0959 84.8999 84.6137 84.2567 84.6137Z" fill="#F0F0F0"/>
<path d="M56.2415 33.8716H60.9106C61.5549 33.8716 62.0779 33.355 62.0779 32.7185V25.7991C62.0779 25.1625 61.5549 24.6459 60.9106 24.6459H56.2415C55.5972 24.6459 55.0742 25.1625 55.0742 25.7991V32.7185C55.0742 33.355 55.5972 33.8716 56.2415 33.8716ZM57.4087 26.9522H59.7434V31.5651H57.4087V26.9522Z" fill="#F0F0F0"/>
<path d="M55.0742 60.3959C55.0742 61.0324 55.5972 61.5491 56.2415 61.5491H60.9106C61.5549 61.5491 62.0779 61.0324 62.0779 60.3959V53.4765C62.0779 52.84 61.5549 52.3233 60.9106 52.3233H56.2415C55.5972 52.3233 55.0742 52.84 55.0742 53.4765V60.3959ZM57.4087 54.6298H59.7434V59.2427H57.4087V54.6298Z" fill="#F0F0F0"/>
<path d="M44.5686 33.8716H49.2378C49.8821 33.8716 50.405 33.355 50.405 32.7185V25.7991C50.405 25.1625 49.8821 24.6459 49.2378 24.6459H44.5686C43.9243 24.6459 43.4014 25.1625 43.4014 25.7991V32.7185C43.4012 33.355 43.9242 33.8716 44.5686 33.8716ZM45.7359 26.9522H48.0705V31.5651H45.7359V26.9522Z" fill="#F0F0F0"/>
<path d="M51.9108 73.4161C51.7007 73.6351 51.5723 73.935 51.5723 74.2349C51.5723 74.5348 51.7007 74.8346 51.9108 75.0538C52.1326 75.2613 52.4361 75.3882 52.7397 75.3882C53.0432 75.3882 53.3466 75.2613 53.5685 75.0538C53.7786 74.8347 53.907 74.5348 53.907 74.2349C53.907 73.935 53.7786 73.6353 53.5685 73.4161C53.1249 72.9893 52.3544 72.9893 51.9108 73.4161Z" fill="#F0F0F0"/>
<path d="M43.4009 60.3959C43.4009 61.0324 43.9238 61.5491 44.5681 61.5491H49.2374C49.8817 61.5491 50.4047 61.0324 50.4047 60.3959V53.4765C50.4047 52.84 49.8817 52.3233 49.2374 52.3233H44.5683C43.924 52.3233 43.401 52.84 43.401 53.4765V60.3959H43.4009ZM45.7355 54.6298H48.0702V59.2427H45.7355V54.6298Z" fill="#F0F0F0"/>
<path d="M41.0664 67.3152C41.0664 67.9517 41.5894 68.4684 42.2337 68.4684H45.7355V78.8475C45.7355 79.484 46.2585 80.0007 46.9028 80.0007C47.5471 80.0007 48.07 79.484 48.07 78.8475V68.4684H57.4085V78.8475C57.4085 79.484 57.9314 80.0007 58.5757 80.0007C59.22 80.0007 59.743 79.484 59.743 78.8475V68.4684H63.2449C63.8892 68.4684 64.4121 67.9517 64.4121 67.3152C64.4121 66.6787 63.8892 66.162 63.2449 66.162H42.2337C41.5894 66.162 41.0664 66.6787 41.0664 67.3152Z" fill="#F0F0F0"/>
<path d="M73.751 60.3959C73.751 61.0324 74.2739 61.5491 74.9182 61.5491H79.5874C80.2317 61.5491 80.7546 61.0324 80.7546 60.3959V53.4765C80.7546 52.84 80.2317 52.3233 79.5874 52.3233H74.9182C74.2739 52.3233 73.751 52.84 73.751 53.4765V60.3959ZM76.0856 54.6298H78.4203V59.2427H76.0856V54.6298Z" fill="#F0F0F0"/>
<path d="M67.9143 17.7263H37.5647C36.9204 17.7263 36.3975 18.243 36.3975 18.8795V78.8476C36.3975 79.4841 36.9204 80.0007 37.5647 80.0007C38.209 80.0007 38.732 79.4841 38.732 78.8476V20.0327H66.7471V78.8476C66.7471 79.4841 67.27 80.0007 67.9143 80.0007C68.5586 80.0007 69.0816 79.4841 69.0816 78.8476V18.8795C69.0817 18.243 68.5588 17.7263 67.9143 17.7263Z" fill="#F0F0F0"/>
</svg>
