<svg width="105" height="106" viewBox="0 0 105 106" fill="none" xmlns="http://www.w3.org/2000/svg">
<path d="M80.962 53.7663H80.8942V39.8125C80.8942 38.0823 79.467 36.6746 77.7127 36.6746H77.1435L75.8475 29.9516C75.7428 29.4085 75.43 28.9381 74.9666 28.6271C74.5032 28.3161 73.9447 28.2017 73.3941 28.3049L68.5658 29.2103L66.7678 24.1751C66.5817 23.6536 66.2007 23.2349 65.6951 22.996C65.1897 22.7571 64.6203 22.7267 64.0914 22.9105L24.4494 36.681C22.7847 36.7798 21.4609 38.1462 21.4609 39.8125V80.4054C21.4609 82.1356 22.8882 83.5433 24.6425 83.5433H77.7128C79.4671 83.5433 80.8943 82.1356 80.8943 80.4054V66.4515H80.9621C82.1192 66.4515 83.0606 65.5231 83.0606 64.3818V55.8359C83.0604 54.6948 82.1191 53.7663 80.962 53.7663ZM64.7659 24.7996C64.7725 24.7973 64.7921 24.7903 64.8176 24.8024C64.8429 24.8143 64.8498 24.8341 64.8521 24.8405L66.5478 29.589L64.5257 29.9681C63.9748 30.0714 63.613 30.5957 63.7178 31.1391C63.8226 31.6824 64.3538 32.0394 64.9051 31.9359L73.7733 30.2728C73.7801 30.2716 73.8008 30.2676 73.8241 30.2833C73.8475 30.2989 73.8513 30.3193 73.8525 30.326L75.0763 36.6748H39.6332L60.574 32.748C61.1249 32.6448 61.4867 32.1205 61.3819 31.577C61.2771 31.0337 60.7458 30.6766 60.1946 30.7802L32.7155 35.9332L64.7659 24.7996ZM78.8636 80.4053C78.8636 81.0311 78.3474 81.5403 77.7128 81.5403H24.6425C24.0079 81.5403 23.4917 81.0311 23.4917 80.4053V79.2702H25.7255C26.2863 79.2702 26.7409 78.8218 26.7409 78.2687C26.7409 77.7156 26.2863 77.2672 25.7255 77.2672H23.4917V42.9505H25.7255C26.2863 42.9505 26.7409 42.502 26.7409 41.9489C26.7409 41.3958 26.2863 40.9474 25.7255 40.9474H23.4917V39.8124C23.4917 39.1866 24.0079 38.6774 24.6425 38.6774H77.7128C78.3474 38.6774 78.8636 39.1866 78.8636 39.8124V53.7662H72.2975C68.7517 53.7662 65.8667 56.6115 65.8667 60.1088C65.8667 63.6061 68.7515 66.4515 72.2975 66.4515H78.8636V80.4053ZM81.0297 64.3818C81.0297 64.4184 80.9994 64.4486 80.962 64.4486H72.2974C69.8713 64.4486 67.8974 62.5018 67.8974 60.1089C67.8974 57.716 69.8713 55.7693 72.2974 55.7693H80.962C80.9994 55.7693 81.0297 55.7993 81.0297 55.8361V64.3818Z" fill="#F0F0F0"/>
<path d="M32.2235 77.2669H30.0574C29.4966 77.2669 29.042 77.7153 29.042 78.2684C29.042 78.8215 29.4966 79.27 30.0574 79.27H32.2235C32.7843 79.27 33.2389 78.8215 33.2389 78.2684C33.2389 77.7153 32.7843 77.2669 32.2235 77.2669Z" fill="#F0F0F0"/>
<path d="M32.2235 40.9473H30.0574C29.4966 40.9473 29.042 41.3957 29.042 41.9488C29.042 42.5019 29.4966 42.9503 30.0574 42.9503H32.2235C32.7843 42.9503 33.2389 42.5019 33.2389 41.9488C33.2389 41.3957 32.7843 40.9473 32.2235 40.9473Z" fill="#F0F0F0"/>
<path d="M38.722 77.2669H36.556C35.9952 77.2669 35.5405 77.7153 35.5405 78.2684C35.5405 78.8215 35.9952 79.27 36.556 79.27H38.722C39.2828 79.27 39.7375 78.8215 39.7375 78.2684C39.7375 77.7153 39.2827 77.2669 38.722 77.2669Z" fill="#F0F0F0"/>
<path d="M38.722 40.9473H36.556C35.9952 40.9473 35.5405 41.3957 35.5405 41.9488C35.5405 42.5019 35.9952 42.9503 36.556 42.9503H38.722C39.2828 42.9503 39.7375 42.5019 39.7375 41.9488C39.7375 41.3957 39.2827 40.9473 38.722 40.9473Z" fill="#F0F0F0"/>
<path d="M45.2211 77.2669H43.055C42.4942 77.2669 42.0396 77.7153 42.0396 78.2684C42.0396 78.8215 42.4942 79.27 43.055 79.27H45.2211C45.7818 79.27 46.2365 78.8215 46.2365 78.2684C46.2365 77.7153 45.7818 77.2669 45.2211 77.2669Z" fill="#F0F0F0"/>
<path d="M45.2211 40.9473H43.055C42.4942 40.9473 42.0396 41.3957 42.0396 41.9488C42.0396 42.5019 42.4942 42.9503 43.055 42.9503H45.2211C45.7818 42.9503 46.2365 42.5019 46.2365 41.9488C46.2365 41.3957 45.7818 40.9473 45.2211 40.9473Z" fill="#F0F0F0"/>
<path d="M51.7191 77.2669H49.553C48.9923 77.2669 48.5376 77.7153 48.5376 78.2684C48.5376 78.8215 48.9923 79.27 49.553 79.27H51.7191C52.2799 79.27 52.7345 78.8215 52.7345 78.2684C52.7345 77.7153 52.2799 77.2669 51.7191 77.2669Z" fill="#F0F0F0"/>
<path d="M51.7191 40.9473H49.553C48.9923 40.9473 48.5376 41.3957 48.5376 41.9488C48.5376 42.5019 48.9923 42.9503 49.553 42.9503H51.7191C52.2799 42.9503 52.7345 42.5019 52.7345 41.9488C52.7345 41.3957 52.2799 40.9473 51.7191 40.9473Z" fill="#F0F0F0"/>
<path d="M58.2176 77.2669H56.0516C55.4908 77.2669 55.0361 77.7153 55.0361 78.2684C55.0361 78.8215 55.4908 79.27 56.0516 79.27H58.2176C58.7784 79.27 59.2331 78.8215 59.2331 78.2684C59.2331 77.7153 58.7784 77.2669 58.2176 77.2669Z" fill="#F0F0F0"/>
<path d="M58.2176 40.9473H56.0516C55.4908 40.9473 55.0361 41.3957 55.0361 41.9488C55.0361 42.5019 55.4908 42.9503 56.0516 42.9503H58.2176C58.7784 42.9503 59.2331 42.5019 59.2331 41.9488C59.2331 41.3957 58.7784 40.9473 58.2176 40.9473Z" fill="#F0F0F0"/>
<path d="M64.7162 77.2669H62.5501C61.9893 77.2669 61.5347 77.7153 61.5347 78.2684C61.5347 78.8215 61.9893 79.27 62.5501 79.27H64.7162C65.277 79.27 65.7316 78.8215 65.7316 78.2684C65.7316 77.7153 65.277 77.2669 64.7162 77.2669Z" fill="#F0F0F0"/>
<path d="M64.7162 40.9473H62.5501C61.9893 40.9473 61.5347 41.3957 61.5347 41.9488C61.5347 42.5019 61.9893 42.9503 62.5501 42.9503H64.7162C65.277 42.9503 65.7316 42.5019 65.7316 41.9488C65.7316 41.3957 65.277 40.9473 64.7162 40.9473Z" fill="#F0F0F0"/>
<path d="M71.2142 77.2669H69.0481C68.4874 77.2669 68.0327 77.7153 68.0327 78.2684C68.0327 78.8215 68.4874 79.27 69.0481 79.27H71.2142C71.775 79.27 72.2297 78.8215 72.2297 78.2684C72.2297 77.7153 71.775 77.2669 71.2142 77.2669Z" fill="#F0F0F0"/>
<path d="M71.2142 40.9473H69.0481C68.4874 40.9473 68.0327 41.3957 68.0327 41.9488C68.0327 42.5019 68.4874 42.9503 69.0481 42.9503H71.2142C71.775 42.9503 72.2297 42.5019 72.2297 41.9488C72.2297 41.3957 71.775 40.9473 71.2142 40.9473Z" fill="#F0F0F0"/>
<path d="M75.5467 75.1306C74.9859 75.1306 74.5312 75.579 74.5312 76.1321V78.2685C74.5312 78.8217 74.9859 79.27 75.5467 79.27C76.1074 79.27 76.5621 78.8216 76.5621 78.2685V76.1321C76.5621 75.579 76.1074 75.1306 75.5467 75.1306Z" fill="#F0F0F0"/>
<path d="M75.5467 40.9473C74.9859 40.9473 74.5312 41.3957 74.5312 41.9488V44.0852C74.5312 44.6384 74.9859 45.0867 75.5467 45.0867C76.1074 45.0867 76.5621 44.6383 76.5621 44.0852V41.9488C76.5621 41.3956 76.1074 40.9473 75.5467 40.9473Z" fill="#F0F0F0"/>
<path d="M75.5467 47.3567C74.9859 47.3567 74.5312 47.8051 74.5312 48.3582V50.4947C74.5312 51.0479 74.9859 51.4962 75.5467 51.4962C76.1074 51.4962 76.5621 51.0477 76.5621 50.4947V48.3582C76.5621 47.8051 76.1074 47.3567 75.5467 47.3567Z" fill="#F0F0F0"/>
<path d="M75.5467 68.7211C74.9859 68.7211 74.5312 69.1695 74.5312 69.7226V71.859C74.5312 72.4122 74.9859 72.8605 75.5467 72.8605C76.1074 72.8605 76.5621 72.4121 76.5621 71.859V69.7226C76.5621 69.1695 76.1074 68.7211 75.5467 68.7211Z" fill="#F0F0F0"/>
<path d="M72.2977 58.0389C71.1405 58.0389 70.1992 58.9673 70.1992 60.1086C70.1992 61.2499 71.1405 62.1784 72.2977 62.1784C73.4548 62.1784 74.3962 61.2499 74.3962 60.1086C74.396 58.9673 73.4547 58.0389 72.2977 58.0389Z" fill="#F0F0F0"/>
<path d="M50.5683 59.3441V51.5363C53.8859 51.7994 56.119 53.3216 56.119 54.7008C56.119 55.2539 56.5737 55.7023 57.1345 55.7023C57.6952 55.7023 58.1499 55.2539 58.1499 54.7008C58.1499 51.9892 54.8933 49.8244 50.5685 49.529V48.3582C50.5685 47.8051 50.1138 47.3567 49.553 47.3567C48.9923 47.3567 48.5376 47.8051 48.5376 48.3582V49.529C44.2128 49.8246 40.9562 51.9893 40.9562 54.7008C40.9562 58.3333 44.4581 59.7509 48.5376 60.8733V68.6811C45.22 68.4182 42.9869 66.896 42.9869 65.5166C42.9869 64.9635 42.5323 64.5151 41.9715 64.5151C41.4107 64.5151 40.9561 64.9635 40.9561 65.5166C40.9561 68.2282 44.2126 70.393 48.5375 70.6884V71.8592C48.5375 72.4123 48.9921 72.8607 49.5529 72.8607C50.1137 72.8607 50.5683 72.4123 50.5683 71.8592V70.6884C54.8932 70.3928 58.1498 68.2281 58.1498 65.5166C58.1498 61.8841 54.6479 60.4665 50.5683 59.3441ZM48.5376 58.7872C44.4193 57.5873 42.9869 56.4974 42.9869 54.7008C42.9869 53.3216 45.22 51.7994 48.5376 51.5363V58.7872ZM50.5683 68.6811V61.4302C54.6866 62.6302 56.119 63.7202 56.119 65.5166C56.119 66.8958 53.8859 68.418 50.5683 68.6811Z" fill="#F0F0F0"/>
</svg>
