<svg width="105" height="106" viewBox="0 0 105 106" fill="none" xmlns="http://www.w3.org/2000/svg">
<circle cx="52.5" cy="52.8938" r="52.5" fill="#168BAA"/>
<path d="M73.7944 21.9153H64.183C63.7242 20.5406 62.4386 19.5477 60.9273 19.5477H57.3573C56.2738 18.073 54.5574 17.1799 52.7392 17.1799C50.9209 17.1799 49.2046 18.073 48.1211 19.5475H44.551C43.0398 19.5475 41.7542 20.5404 41.2954 21.9152H31.6839C29.1442 21.9152 27.0781 24.0063 27.0781 26.5765V83.4002C27.0781 85.9705 29.1444 88.0615 31.6839 88.0615H73.7943C76.334 88.0615 78.4001 85.9704 78.4001 83.4002V26.5766C78.4002 24.0063 76.334 21.9153 73.7944 21.9153ZM43.3082 23.0279C43.3082 23.027 43.3083 23.026 43.3083 23.0252C43.3083 23.0248 43.3083 23.0243 43.3083 23.0236C43.309 22.3308 43.8661 21.7673 44.551 21.7673H48.7091C49.0995 21.7673 49.4605 21.5573 49.657 21.2156C50.311 20.0786 51.4632 19.3997 52.7392 19.3997C54.0152 19.3997 55.1674 20.0786 55.8214 21.2156C56.0177 21.5571 56.3788 21.7673 56.7692 21.7673H60.9273C61.6111 21.7673 62.1676 22.3292 62.1701 23.0209C62.1701 23.0224 62.1699 23.0237 62.1699 23.0252C62.1699 23.0281 62.1703 23.031 62.1703 23.0338V26.6507H43.3082V23.0279ZM76.2069 83.4002C76.2069 84.7466 75.1246 85.8419 73.7943 85.8419H31.6839C30.3536 85.8419 29.2713 84.7466 29.2713 83.4002V26.5766C29.2713 25.2303 30.3536 24.1349 31.6839 24.1349H41.115V27.7604C41.115 28.3733 41.6059 28.8703 42.2116 28.8703H63.2667C63.8723 28.8703 64.3634 28.3734 64.3634 27.7604V24.1349H73.7944C75.1247 24.1349 76.207 25.2303 76.207 26.5766V83.4002H76.2069Z" fill="#F0F0F0"/>
<path d="M52.751 21.9153H52.7392C52.1336 21.9153 51.6484 22.4122 51.6484 23.0252C51.6484 23.6381 52.1453 24.1351 52.7508 24.1351C53.3564 24.1351 53.8475 23.6382 53.8475 23.0252C53.8475 22.4122 53.3566 21.9153 52.751 21.9153Z" fill="#F0F0F0"/>
<path d="M72.6246 26.6508H67.9454C67.3399 26.6508 66.8488 27.1476 66.8488 27.7606C66.8488 28.3737 67.3397 28.8705 67.9454 28.8705H71.5279V81.1068H33.9502V28.8705H37.5328C38.1383 28.8705 38.6294 28.3737 38.6294 27.7606C38.6294 27.1476 38.1385 26.6508 37.5328 26.6508H32.8535C32.2479 26.6508 31.7568 27.1476 31.7568 27.7606V82.2167C31.7568 82.8296 32.2478 83.3266 32.8535 83.3266H72.6246C73.2301 83.3266 73.7212 82.8297 73.7212 82.2167V27.7606C73.7211 27.1478 73.2301 26.6508 72.6246 26.6508Z" fill="#F0F0F0"/>
<path d="M45.7205 40.8565C45.115 40.8565 44.6239 41.3534 44.6239 41.9664C44.6239 43.3127 43.5416 44.408 42.2113 44.408C40.881 44.408 39.7987 43.3127 39.7987 41.9664C39.7987 40.62 40.881 39.5247 42.2113 39.5247C42.8169 39.5247 43.3079 39.0278 43.3079 38.4148C43.3079 37.8018 42.817 37.3049 42.2113 37.3049C39.6716 37.3049 37.6055 39.3961 37.6055 41.9662C37.6055 44.5364 39.6717 46.6275 42.2113 46.6275C44.7508 46.6275 46.8171 44.5364 46.8171 41.9662C46.8172 41.3534 46.3261 40.8565 45.7205 40.8565Z" fill="#F0F0F0"/>
<path d="M45.7205 53.8786C45.115 53.8786 44.6239 54.3754 44.6239 54.9884C44.6239 56.3348 43.5416 57.4301 42.2113 57.4301C40.881 57.4301 39.7987 56.3348 39.7987 54.9884C39.7987 53.6421 40.881 52.5468 42.2113 52.5468C42.8169 52.5468 43.3079 52.0499 43.3079 51.4369C43.3079 50.8239 42.817 50.327 42.2113 50.327C39.6716 50.327 37.6055 52.4181 37.6055 54.9883C37.6055 57.5584 39.6717 59.6496 42.2113 59.6496C44.7508 59.6496 46.8171 57.5584 46.8171 54.9883C46.8172 54.3754 46.3261 53.8786 45.7205 53.8786Z" fill="#F0F0F0"/>
<path d="M66.7762 56.2462H50.3999C49.7943 56.2462 49.3032 56.743 49.3032 57.356C49.3032 57.969 49.7942 58.4659 50.3999 58.4659H66.7762C67.3817 58.4659 67.8728 57.969 67.8728 57.356C67.8728 56.743 67.3817 56.2462 66.7762 56.2462Z" fill="#F0F0F0"/>
<path d="M62.0972 51.5107H50.3999C49.7943 51.5107 49.3032 52.0076 49.3032 52.6206C49.3032 53.2336 49.7942 53.7305 50.3999 53.7305H62.0972C62.7027 53.7305 63.1938 53.2336 63.1938 52.6206C63.1938 52.0076 62.7029 51.5107 62.0972 51.5107Z" fill="#F0F0F0"/>
<path d="M66.7762 43.2241H50.3999C49.7943 43.2241 49.3032 43.721 49.3032 44.334C49.3032 44.947 49.7942 45.4438 50.3999 45.4438H66.7762C67.3817 45.4438 67.8728 44.947 67.8728 44.334C67.8728 43.721 67.3817 43.2241 66.7762 43.2241Z" fill="#F0F0F0"/>
<path d="M62.0972 38.4891H50.3999C49.7943 38.4891 49.3032 38.9859 49.3032 39.599C49.3032 40.212 49.7942 40.7088 50.3999 40.7088H62.0972C62.7027 40.7088 63.1938 40.212 63.1938 39.599C63.1938 38.9859 62.7029 38.4891 62.0972 38.4891Z" fill="#F0F0F0"/>
<path d="M45.7205 66.9006C45.115 66.9006 44.6239 67.3975 44.6239 68.0105C44.6239 69.3568 43.5416 70.4522 42.2113 70.4522C40.881 70.4522 39.7987 69.3568 39.7987 68.0105C39.7987 66.6642 40.881 65.5688 42.2113 65.5688C42.8169 65.5688 43.3079 65.072 43.3079 64.4589C43.3079 63.8459 42.817 63.3491 42.2113 63.3491C39.6716 63.3491 37.6055 65.4402 37.6055 68.0104C37.6055 70.5806 39.6717 72.6717 42.2113 72.6717C44.7508 72.6717 46.8171 70.5805 46.8171 68.0104C46.8172 67.3976 46.3261 66.9006 45.7205 66.9006Z" fill="#F0F0F0"/>
<path d="M66.7762 69.2682H50.3999C49.7943 69.2682 49.3032 69.7651 49.3032 70.3781C49.3032 70.991 49.7942 71.488 50.3999 71.488H66.7762C67.3817 71.488 67.8728 70.9911 67.8728 70.3781C67.8727 69.7651 67.3817 69.2682 66.7762 69.2682Z" fill="#F0F0F0"/>
<path d="M62.0972 64.5332H50.3999C49.7943 64.5332 49.3032 65.0301 49.3032 65.6431C49.3032 66.2561 49.7942 66.753 50.3999 66.753H62.0972C62.7027 66.753 63.1938 66.2561 63.1938 65.6431C63.1938 65.0301 62.7029 64.5332 62.0972 64.5332Z" fill="#F0F0F0"/>
</svg>
