<svg width="105" height="106" viewBox="0 0 105 106" fill="none" xmlns="http://www.w3.org/2000/svg">
<circle cx="52.5" cy="52.8938" r="52.5" fill="#168BAA"/>
<path d="M81.5923 49.6721L79.8004 42.4173C80.2903 42.312 80.6579 41.8721 80.6579 41.345V40.1753C80.6579 37.6356 78.6165 35.5695 76.1076 35.5695H67.9459V33.1568C67.9459 31.907 66.9416 30.8904 65.7069 30.8904H24.1037C22.8691 30.8904 21.8647 31.907 21.8647 33.1568V53.0423C21.8647 53.6479 22.3497 54.139 22.9481 54.139C23.5464 54.139 24.0316 53.648 24.0316 53.0423V33.1568C24.0316 33.1164 24.0639 33.0837 24.1037 33.0837H65.7067C65.7466 33.0837 65.7789 33.1164 65.7789 33.1568V53.0426C65.7789 53.6481 66.2639 54.1392 66.8624 54.1392C67.4606 54.1392 67.9458 53.6483 67.9458 53.0426V51.7994H80.7263C80.7274 51.7994 80.7282 51.7997 80.7291 51.7997C80.7302 51.7997 80.7311 51.7995 80.7321 51.7995C82.3048 51.8006 83.6401 52.8454 84.0988 54.2852H80.7299C80.1316 54.2852 79.6465 54.7761 79.6465 55.3819V57.7213C79.6465 59.616 81.1693 61.1574 83.0412 61.1574H84.2691V65.9825H81.4362C80.5056 63.2626 77.9512 61.3035 74.9517 61.3035C71.9522 61.3035 69.3977 63.2626 68.4672 65.9825H67.9455V57.7211C67.9455 57.1156 67.4605 56.6245 66.8621 56.6245C66.2638 56.6245 65.7786 57.1154 65.7786 57.7211V65.9822H43.3003C42.3697 63.2623 39.8154 61.3032 36.8158 61.3032C33.8163 61.3032 31.2618 63.2623 30.3313 65.9822H24.1037C24.0639 65.9822 24.0316 65.9495 24.0316 65.9091V63.4965H28.7264C29.3246 63.4965 29.8098 63.0056 29.8098 62.3999C29.8098 61.7941 29.3248 61.3032 28.7264 61.3032H18.3256C17.7274 61.3032 17.2422 61.7941 17.2422 62.3999C17.2422 63.0056 17.7272 63.4965 18.3256 63.4965H21.8648V65.9091C21.8648 67.1589 22.8692 68.1755 24.1039 68.1755H29.9562C29.9559 68.1999 29.9543 68.2241 29.9543 68.2486C29.9543 72.0782 33.0325 75.1938 36.8158 75.1938C40.5992 75.1938 43.6774 72.0782 43.6774 68.2486C43.6774 68.2239 43.6758 68.1999 43.6755 68.1755H68.092C68.0918 68.1999 68.0901 68.2241 68.0901 68.2486C68.0901 72.0782 71.1683 75.1938 74.9517 75.1938C78.7351 75.1938 81.8132 72.0782 81.8132 68.2486C81.8132 68.2239 81.8116 68.1999 81.8114 68.1755H85.3525C85.9508 68.1755 86.436 67.6846 86.436 67.0788V55.3816C86.4361 52.4936 84.331 50.0941 81.5923 49.6721ZM67.9459 37.7627H76.1076C77.4219 37.7627 78.4911 38.845 78.4911 40.1753V40.2484H67.9459V37.7627ZM67.9459 49.6062V42.4416H77.573L79.3425 49.6062H67.9459ZM36.8158 73.0009C34.2271 73.0009 32.121 70.8692 32.121 68.2488C32.121 65.6284 34.2271 63.4968 36.8158 63.4968C39.4045 63.4968 41.5106 65.6284 41.5106 68.2488C41.5106 70.8692 39.4045 73.0009 36.8158 73.0009ZM74.952 73.0009C72.3633 73.0009 70.2572 70.8692 70.2572 68.2488C70.2572 65.6284 72.3633 63.4968 74.952 63.4968C77.5407 63.4968 79.6467 65.6284 79.6467 68.2488C79.6467 70.8692 77.5407 73.0009 74.952 73.0009ZM84.2694 58.964H83.0414C82.3644 58.964 81.8135 58.4065 81.8135 57.7211V56.4782H84.2692V58.964H84.2694Z" fill="#F0F0F0"/>
<path d="M36.8162 65.9826C35.5815 65.9826 34.5771 66.9993 34.5771 68.249C34.5771 69.4987 35.5815 70.5154 36.8162 70.5154C38.0509 70.5154 39.0553 69.4987 39.0553 68.249C39.0553 66.9993 38.0509 65.9826 36.8162 65.9826Z" fill="#F0F0F0"/>
<path d="M74.952 65.9826C73.7173 65.9826 72.7129 66.9993 72.7129 68.249C72.7129 69.4987 73.7173 70.5154 74.952 70.5154C76.1866 70.5154 77.191 69.4987 77.191 68.249C77.191 66.9993 76.1866 65.9826 74.952 65.9826Z" fill="#F0F0F0"/>
<path d="M62.2394 61.3036H46.0605C45.4622 61.3036 44.9771 61.7946 44.9771 62.4003C44.9771 63.006 45.4621 63.497 46.0605 63.497H62.2394C62.8377 63.497 63.3229 63.006 63.3229 62.4003C63.3229 61.7946 62.8379 61.3036 62.2394 61.3036Z" fill="#F0F0F0"/>
<path d="M34.5044 56.6247H20.6367C20.0384 56.6247 19.5532 57.1156 19.5532 57.7214C19.5532 58.3271 20.0383 58.818 20.6367 58.818H34.5044C35.1027 58.818 35.5878 58.3271 35.5878 57.7214C35.5878 57.1156 35.1027 56.6247 34.5044 56.6247Z" fill="#F0F0F0"/>
<path d="M54.9166 41.7392C54.4936 41.311 53.8075 41.311 53.3845 41.7393L43.7498 51.4914L38.7377 46.4181C38.3145 45.9899 37.6285 45.9899 37.2055 46.4181C36.7824 46.8464 36.7824 47.5407 37.2055 47.969L42.9838 53.8177C43.1953 54.0319 43.4726 54.1389 43.7498 54.1389C44.027 54.1389 44.3044 54.0319 44.5158 53.8177L54.9165 43.2901C55.3396 42.8617 55.3396 42.1675 54.9166 41.7392Z" fill="#F0F0F0"/>
</svg>
