<svg width="10" height="8" viewBox="0 0 10 8" fill="#959595" xmlns="http://www.w3.org/2000/svg">
<path d="M0.959799 2.42186C1.0863 2.51112 1.46761 2.77624 2.10376 3.21706C2.73992 3.65789 3.22727 3.99732 3.56581 4.23536C3.60301 4.26146 3.68203 4.31818 3.80292 4.4056C3.92383 4.49309 4.02429 4.56379 4.10423 4.61771C4.18423 4.67162 4.28094 4.73209 4.39446 4.79903C4.50795 4.86592 4.61492 4.91623 4.71536 4.94953C4.81583 4.98311 4.90882 4.99975 4.99437 4.99975H4.99998H5.00561C5.09116 4.99975 5.1842 4.98309 5.28466 4.94953C5.38507 4.91623 5.49214 4.86586 5.60552 4.79903C5.71896 4.73201 5.81567 4.6716 5.89567 4.61771C5.97567 4.56379 6.07606 4.49309 6.19701 4.4056C6.31787 4.3181 6.39699 4.26146 6.43419 4.23536C6.77639 3.99732 7.64701 3.39276 9.04576 2.42174C9.31732 2.23209 9.5442 2.00325 9.72647 1.73538C9.90886 1.46763 9.99997 1.18674 9.99997 0.892876C9.99997 0.647306 9.91156 0.437095 9.73483 0.262261C9.55812 0.0873877 9.34883 0 9.10709 0H0.892817C0.606378 0 0.385945 0.096711 0.231555 0.290133C0.077185 0.483594 0 0.72541 0 1.01556C0 1.24993 0.10234 1.50391 0.306922 1.77733C0.511485 2.05077 0.729182 2.26563 0.959799 2.42186Z" />
<path d="M9.44186 3.01867C8.22176 3.84449 7.2953 4.48628 6.66295 4.94392C6.4509 5.10011 6.27888 5.22203 6.14677 5.3094C6.01467 5.39683 5.83897 5.48611 5.61944 5.57721C5.39998 5.66845 5.19546 5.71393 5.00569 5.71393H5H4.99439C4.80466 5.71393 4.60002 5.66845 4.38057 5.57721C4.16111 5.48611 3.9853 5.39683 3.85323 5.3094C3.7212 5.22203 3.54912 5.10011 3.33709 4.94392C2.83483 4.57565 1.91037 3.93381 0.563671 3.01867C0.351564 2.8774 0.163693 2.71546 0 2.5332V6.96387C0 7.20955 0.0873878 7.41965 0.262261 7.5945C0.437095 7.76941 0.647326 7.85684 0.892876 7.85684H9.10717C9.35266 7.85684 9.56287 7.76941 9.73772 7.5945C9.91264 7.41959 9.99998 7.20957 9.99998 6.96387V2.5332C9.83998 2.71169 9.65403 2.87363 9.44186 3.01867Z" />
</svg>
