<svg width="15" height="12" viewBox="0 0 15 12" fill="#959595" xmlns="http://www.w3.org/2000/svg">
	<path d="M1.4397 3.63279C1.62945 3.76668 2.20141 4.16435 3.15563 4.8256C4.10988 5.48684 4.8409 5.99598 5.34872 6.35305C5.40451 6.39219 5.52305 6.47727 5.70438 6.60841C5.88574 6.73963 6.03644 6.84568 6.15635 6.92657C6.27635 7.00743 6.42142 7.09814 6.5917 7.19855C6.76192 7.29888 6.92238 7.37434 7.07304 7.4243C7.22374 7.47467 7.36323 7.49962 7.49156 7.49962H7.49997H7.50842C7.63674 7.49962 7.7763 7.47464 7.92699 7.4243C8.0776 7.37434 8.23821 7.29879 8.40828 7.19855C8.57844 7.09802 8.72351 7.0074 8.84351 6.92657C8.96351 6.84568 9.11409 6.73963 9.29551 6.60841C9.47681 6.47715 9.59549 6.39219 9.65128 6.35305C10.1646 5.99598 11.4705 5.08914 13.5686 3.63261C13.976 3.34814 14.3163 3.00488 14.5897 2.60307C14.8633 2.20144 14.9999 1.78011 14.9999 1.33931C14.9999 0.97096 14.8673 0.655643 14.6022 0.393391C14.3372 0.131082 14.0232 0 13.6606 0H1.33923C0.909568 0 0.578917 0.145066 0.347333 0.435199C0.115778 0.725391 0 1.08812 0 1.52334C0 1.8749 0.15351 2.25586 0.460384 2.66599C0.767228 3.07615 1.09377 3.39845 1.4397 3.63279Z" />
	<path d="M14.1628 4.52801C12.3326 5.76673 10.943 6.72942 9.99442 7.41588C9.67635 7.65016 9.41832 7.83305 9.22016 7.9641C9.022 8.09524 8.75846 8.22917 8.42916 8.36582C8.09997 8.50268 7.79318 8.5709 7.50853 8.5709H7.5H7.49159C7.207 8.5709 6.90004 8.50268 6.57085 8.36582C6.24167 8.22917 5.97795 8.09524 5.77985 7.9641C5.5818 7.83305 5.32368 7.65016 5.00564 7.41588C4.25225 6.86347 2.86556 5.90072 0.845507 4.52801C0.527346 4.3161 0.24554 4.0732 0 3.7998V10.4458C0 10.8143 0.131082 11.1295 0.393391 11.3918C0.655643 11.6541 0.970989 11.7853 1.33931 11.7853H13.6608C14.029 11.7853 14.3443 11.6541 14.6066 11.3918C14.869 11.1294 15 10.8144 15 10.4458V3.7998C14.76 4.06754 14.481 4.31044 14.1628 4.52801Z" />
</svg>
