<svg width="10" height="10" viewBox="0 0 10 10" fill="#959595" xmlns="http://www.w3.org/2000/svg">
<path d="M9.97873 7.74863C9.95044 7.6634 9.77048 7.53785 9.43897 7.37227C9.34916 7.32007 9.22119 7.24915 9.05561 7.15917C8.88988 7.06919 8.73944 6.98627 8.60458 6.9105C8.46945 6.83474 8.34285 6.76136 8.22456 6.69043C8.20565 6.67623 8.14647 6.63486 8.04704 6.56604C7.9475 6.49743 7.86357 6.44651 7.79478 6.4133C7.72614 6.38029 7.65863 6.36367 7.59233 6.36367C7.49765 6.36367 7.37938 6.43119 7.23738 6.56604C7.09538 6.70108 6.96513 6.84776 6.84681 7.00652C6.72847 7.16521 6.60296 7.31189 6.47052 7.44685C6.33787 7.58186 6.22888 7.6493 6.14375 7.6493C6.10102 7.6493 6.04773 7.63738 5.98387 7.61387C5.92003 7.59022 5.87147 7.56994 5.83814 7.5536C5.8051 7.5369 5.74841 7.50387 5.66785 7.45399C5.58715 7.40426 5.54227 7.37702 5.53282 7.37227C4.88415 7.01232 4.32782 6.60035 3.86373 6.13647C3.3998 5.67231 2.98778 5.11603 2.62793 4.46728C2.6232 4.4578 2.59591 4.4128 2.54623 4.33234C2.49648 4.25182 2.46332 4.19507 2.44675 4.16184C2.43018 4.12872 2.41006 4.08016 2.38642 4.01625C2.36279 3.95234 2.35092 3.89911 2.35092 3.85644C2.35092 3.77126 2.41841 3.6623 2.55337 3.52971C2.68831 3.39718 2.83513 3.27165 2.9937 3.15336C3.15239 3.03507 3.29907 2.90481 3.43405 2.76281C3.56899 2.62074 3.63645 2.50243 3.63645 2.40774C3.63645 2.34149 3.61989 2.27395 3.58677 2.20532C3.55364 2.13653 3.50274 2.0526 3.43405 1.95311C3.36534 1.85368 3.32392 1.79454 3.30969 1.77551C3.23874 1.65722 3.16543 1.53057 3.08958 1.39561C3.01373 1.26068 2.93094 1.11027 2.84093 0.944563C2.751 0.778931 2.68002 0.651037 2.62788 0.561081C2.46225 0.229691 2.33679 0.0496798 2.25154 0.0213695C2.21838 0.00716464 2.16862 0 2.1024 0C1.97448 0 1.8076 0.0236334 1.60165 0.0710494C1.39561 0.118391 1.23349 0.168046 1.1151 0.220213C0.87834 0.319598 0.627404 0.608422 0.362212 1.08659C0.120729 1.53159 0 1.97204 0 2.40762C0 2.53536 0.00828412 2.65965 0.0248523 2.7805C0.0414206 2.90123 0.0710245 3.03738 0.113689 3.18894C0.156279 3.34044 0.190634 3.45298 0.216606 3.52627C0.242603 3.59961 0.291138 3.73099 0.362188 3.92045C0.433137 4.10987 0.475802 4.22582 0.490007 4.26843C0.655714 4.73249 0.852219 5.14677 1.07947 5.5114C1.45338 6.11746 1.96363 6.74379 2.60994 7.39015C3.25628 8.03646 3.88249 8.5467 4.4886 8.92075C4.85317 9.14798 5.2676 9.34446 5.73159 9.51029C5.77423 9.52442 5.89018 9.56699 6.07952 9.63818C6.26894 9.70918 6.40036 9.75772 6.4737 9.78377C6.54706 9.80984 6.65963 9.84422 6.81101 9.88688C6.96271 9.92955 7.09874 9.95915 7.21947 9.97584C7.34027 9.99219 7.46459 10.0006 7.59236 10.0006C8.02791 10.0006 8.46838 9.87982 8.91346 9.63836C9.39158 9.37327 9.68033 9.12228 9.77976 8.88535C9.83205 8.76708 9.88158 8.60491 9.92892 8.39888C9.97641 8.19294 10 8.02609 10 7.8982C10.0001 7.8317 9.99301 7.78207 9.97873 7.74863Z"/>
</svg>
