<svg width="15" height="15" viewBox="0 0 15 15" fill="#959595" xmlns="http://www.w3.org/2000/svg">
	<path d="M14.9681 11.623C14.9257 11.4951 14.6557 11.3068 14.1585 11.0584C14.0237 10.9801 13.8318 10.8737 13.5834 10.7388C13.3348 10.6038 13.1092 10.4794 12.9069 10.3657C12.7042 10.2521 12.5143 10.142 12.3368 10.0356C12.3085 10.0143 12.2197 9.95228 12.0706 9.84907C11.9213 9.74615 11.7953 9.66977 11.6922 9.61995C11.5892 9.57043 11.4879 9.5455 11.3885 9.5455C11.2465 9.5455 11.0691 9.64678 10.8561 9.84907C10.6431 10.0516 10.4477 10.2716 10.2702 10.5098C10.0927 10.7478 9.90444 10.9678 9.70577 11.1703C9.50681 11.3728 9.34333 11.4739 9.21563 11.4739C9.15152 11.4739 9.07159 11.4561 8.9758 11.4208C8.88005 11.3853 8.80721 11.3549 8.75721 11.3304C8.70765 11.3054 8.62261 11.2558 8.50178 11.181C8.38073 11.1064 8.31341 11.0655 8.29923 11.0584C7.32622 10.5185 6.49172 9.90053 5.7956 9.2047C5.09969 8.50846 4.48167 7.67404 3.9419 6.70092C3.93481 6.6867 3.89387 6.6192 3.81935 6.49852C3.74472 6.37772 3.69498 6.29261 3.67012 6.24275C3.64527 6.19309 3.61508 6.12024 3.57963 6.02438C3.54418 5.92852 3.52638 5.84866 3.52638 5.78466C3.52638 5.65689 3.62762 5.49345 3.83006 5.29456C4.03246 5.09578 4.2527 4.90748 4.49055 4.73004C4.72859 4.55261 4.9486 4.35722 5.15108 4.14422C5.35348 3.93111 5.45468 3.75364 5.45468 3.61161C5.45468 3.51224 5.42983 3.41093 5.38016 3.30797C5.33046 3.2048 5.25411 3.07889 5.15108 2.92967C5.04801 2.78052 4.98588 2.69182 4.96454 2.66327C4.85811 2.48583 4.74814 2.29586 4.63437 2.09342C4.52059 1.89102 4.3964 1.66541 4.26139 1.41685C4.1265 1.1684 4.02004 0.976556 3.94182 0.841621C3.69337 0.344537 3.50519 0.0745197 3.37731 0.0320543C3.32757 0.010747 3.25293 0 3.1536 0C2.96172 0 2.71141 0.03545 2.40247 0.106574C2.09342 0.177586 1.85023 0.252068 1.67265 0.33032C1.31751 0.479397 0.941105 0.912633 0.543319 1.62988C0.181094 2.29739 0 2.95806 0 3.61143C0 3.80304 0.0124262 3.98947 0.0372785 4.17075C0.0621309 4.35185 0.106537 4.55608 0.170533 4.78341C0.234418 5.01066 0.285951 5.17948 0.324909 5.28941C0.363904 5.39942 0.436707 5.59648 0.543281 5.88068C0.649706 6.1648 0.713703 6.33873 0.73501 6.40265C0.983571 7.09874 1.27833 7.72016 1.61921 8.2671C2.18007 9.17619 2.94545 10.1157 3.91492 11.0852C4.88442 12.0547 5.82373 12.82 6.7329 13.3811C7.27976 13.722 7.9014 14.0167 8.59738 14.2654C8.66134 14.2866 8.83527 14.3505 9.11928 14.4573C9.40341 14.5638 9.60054 14.6366 9.71055 14.6756C9.82059 14.7148 9.98945 14.7663 10.2165 14.8303C10.4441 14.8943 10.6481 14.9387 10.8292 14.9638C11.0104 14.9883 11.1969 15.0009 11.3885 15.0009C12.0419 15.0009 12.7026 14.8197 13.3702 14.4575C14.0874 14.0599 14.5205 13.6834 14.6696 13.328C14.7481 13.1506 14.8224 12.9074 14.8934 12.5983C14.9646 12.2894 15 12.0391 15 11.8473C15.0002 11.7475 14.9895 11.6731 14.9681 11.623Z" />
</svg>
