<svg width="30" height="30" viewBox="0 0 30 30" fill="none" xmlns="http://www.w3.org/2000/svg">
<g clip-path="url(#clip0)">
<path d="M29.1165 5.88744C28.9685 5.93065 28.8206 5.97087 28.6728 6.00834C27.7687 6.23661 27.6856 5.93539 28.3401 5.27081C28.6333 4.97301 28.8923 4.64911 29.1172 4.29928C29.6213 3.5148 29.1841 3.17268 28.3263 3.53913C28.0203 3.66985 27.7093 3.78837 27.3939 3.89404C26.5101 4.19085 25.256 3.74313 24.4684 3.24364C23.4742 2.61317 22.3443 2.2981 21.0784 2.2981C19.3051 2.2981 17.7936 2.9235 16.5431 4.1733C15.2929 5.42377 14.6675 6.93568 14.6675 8.70853C14.6675 8.95099 14.6814 9.19714 14.7088 9.44671C14.7537 9.85294 14.0695 10.1474 13.1462 10.017C11.1491 9.73508 9.25159 9.12993 7.45336 8.20226C5.66997 7.28237 4.09599 6.12477 2.73168 4.7294C2.07952 4.0625 1.19748 4.11994 0.953978 5.02019C0.808085 5.55984 0.735524 6.12107 0.735524 6.70398C0.735524 7.80249 0.993486 8.82131 1.50952 9.76046C1.76616 10.2278 2.06672 10.6509 2.41187 11.0295C2.9924 11.6668 2.90357 12.0365 2.09547 11.81C1.2877 11.5834 0.69574 11.247 0.69574 11.269C0.69574 11.291 0.69574 11.3088 0.69574 11.3088C0.69574 12.8565 1.1817 14.2164 2.15423 15.3872C2.75331 16.1085 3.44929 16.6657 4.24188 17.0581C5.07768 17.4721 5.46702 17.7031 4.99966 17.7635C4.71769 17.8 4.43401 17.8182 4.14868 17.8182C3.95556 17.8182 3.75294 17.8094 3.54155 17.7916C3.20722 17.7632 3.14713 18.4598 3.654 19.2427C4.05687 19.8647 4.57251 20.4121 5.20067 20.8849C5.83959 21.3661 6.52817 21.7115 7.26531 21.9219C8.16225 22.1776 8.34224 22.6433 7.54253 23.1228C5.56364 24.3102 3.37369 24.9038 0.973015 24.9038C0.702527 24.9038 0.444509 24.8977 0.198024 24.8859C-0.229835 24.8654 0.0572072 25.2422 0.883183 25.6748C3.46419 27.0266 6.25928 27.7019 9.26886 27.7019C11.5443 27.7019 13.6812 27.3417 15.6794 26.6207C17.6768 25.8997 19.3839 24.9335 20.7995 23.7229C22.2151 22.5122 23.4359 21.1199 24.4614 19.5452C25.4867 17.9706 26.2506 16.3266 26.7537 14.6135C27.2562 12.9 27.5078 11.1832 27.5078 9.46299C27.5078 9.30799 27.5065 9.16883 27.5041 9.04628C27.4994 8.81596 28.1086 8.19255 28.7887 7.55468C29.0957 7.26664 29.3884 6.96437 29.6681 6.64731C30.2849 5.9472 30.0117 5.62639 29.1165 5.88744Z" fill="#363636"/>
</g>
<defs>
<clipPath id="clip0">
<rect width="30" height="30" fill="white"/>
</clipPath>
</defs>
</svg>
