<svg width="15" height="15" viewBox="0 0 15 15" fill="none" xmlns="http://www.w3.org/2000/svg">
<path d="M7.5 15C11.6421 15 15 11.6421 15 7.5C15 3.35786 11.6421 0 7.5 0C3.35786 0 0 3.35786 0 7.5C0 11.6421 3.35786 15 7.5 15Z" fill="#FFD363"/>
<path d="M8.01242 8.99316H7.19699L7.13351 3.89062H8.08078L8.01242 8.99316ZM7.09933 10.5459C7.09933 10.3994 7.14328 10.2773 7.23117 10.1797C7.32231 10.0788 7.45578 10.0283 7.63156 10.0283C7.80734 10.0283 7.9408 10.0788 8.03195 10.1797C8.12309 10.2773 8.16867 10.3994 8.16867 10.5459C8.16867 10.6924 8.12309 10.8145 8.03195 10.9121C7.9408 11.0065 7.80734 11.0537 7.63156 11.0537C7.45578 11.0537 7.32231 11.0065 7.23117 10.9121C7.14328 10.8145 7.09933 10.6924 7.09933 10.5459Z" fill="white"/>
</svg>
